<?xml version="1.0" encoding="UTF-8"?>
<!DOCTYPE svg PUBLIC "-//W3C//DTD SVG 1.1//EN" "http://www.w3.org/Graphics/SVG/1.1/DTD/svg11.dtd">
<svg xmlns="http://www.w3.org/2000/svg" version="1.1" width="220px" height="220px" style="shape-rendering:geometricPrecision; text-rendering:geometricPrecision; image-rendering:optimizeQuality; fill-rule:evenodd; clip-rule:evenodd" xmlns:xlink="http://www.w3.org/1999/xlink">
<g><path style="opacity:0.95" fill="#8acfeb" d="M 135.5,84.5 C 140.677,83.7031 145.177,85.0364 149,88.5C 149.667,90.5 149.667,92.5 149,94.5C 140.162,117.002 130.662,139.169 120.5,161C 117.167,161.667 113.833,161.667 110.5,161C 105.962,159.336 104.462,156.169 106,151.5C 114.196,131.914 122.196,112.247 130,92.5C 131.129,89.2064 132.962,86.5397 135.5,84.5 Z"/></g>
<g><path style="opacity:1" fill="#fbfdfe" d="M 137.5,88.5 C 141.92,87.8014 144.42,89.468 145,93.5C 135.943,114.004 127.277,134.671 119,155.5C 115.543,158.244 112.376,157.911 109.5,154.5C 118.315,132.213 127.648,110.213 137.5,88.5 Z"/></g>
<g><path style="opacity:0.961" fill="#8acfeb" d="M 43.5,96.5 C 50.0544,97.0536 53.7211,100.72 54.5,107.5C 54.1519,109.697 53.1519,111.53 51.5,113C 46.3413,115.412 41.3413,118.079 36.5,121C 41.1667,123.333 45.8333,125.667 50.5,128C 55.5188,132.53 55.6854,137.363 51,142.5C 48.5027,144.478 45.6693,144.978 42.5,144C 31.6766,138.755 21.0099,133.255 10.5,127.5C 6.27628,122.345 6.60962,117.512 11.5,113C 22.3846,107.726 33.0513,102.226 43.5,96.5 Z"/></g>
<g><path style="opacity:0.953" fill="#89cfeb" d="M 158.5,96.5 C 160.199,96.3398 161.866,96.5065 163.5,97C 174.657,102.411 185.657,108.078 196.5,114C 199.658,117.472 200.158,121.306 198,125.5C 187.396,132.555 176.23,138.721 164.5,144C 158.083,145.596 154.249,143.096 153,136.5C 152.365,134.365 152.699,132.365 154,130.5C 159.092,126.702 164.592,123.535 170.5,121C 165.659,118.079 160.659,115.412 155.5,113C 152.903,110.683 152.07,107.85 153,104.5C 154.129,101.206 155.962,98.5397 158.5,96.5 Z"/></g>
<g><path style="opacity:1" fill="#fbfdfe" d="M 43.5,101.5 C 48.1725,101.488 50.0058,103.822 49,108.5C 41.0874,112.539 33.254,116.706 25.5,121C 33.2882,124.394 40.9549,128.061 48.5,132C 49.954,135.61 48.954,138.443 45.5,140.5C 34.6766,135.255 24.0099,129.755 13.5,124C 12.1667,121.667 12.1667,119.333 13.5,117C 23.7181,112.059 33.7181,106.892 43.5,101.5 Z"/></g>
<g><path style="opacity:1" fill="#fbfdfe" d="M 159.5,101.5 C 171.706,105.686 183.206,111.353 194,118.5C 194.667,120.167 194.667,121.833 194,123.5C 182.99,129.184 171.99,134.85 161,140.5C 158.311,138.457 157.311,135.79 158,132.5C 165.422,128.539 172.922,124.706 180.5,121C 173.658,117.078 166.658,113.412 159.5,110C 157.047,107.251 157.047,104.417 159.5,101.5 Z"/></g>
<g><path style="opacity:0.967" fill="#88ceeb" d="M 63.5,102.5 C 67.5138,102.334 71.5138,102.501 75.5,103C 77.9306,103.295 79.764,104.462 81,106.5C 88.6035,100.927 95.9368,101.26 103,107.5C 104.755,112.927 103.589,117.76 99.5,122C 98.1279,122.402 96.7946,122.902 95.5,123.5C 88.2828,120 83.9494,122.334 82.5,130.5C 93.2036,128.706 97.7036,133.039 96,143.5C 95.5348,144.931 94.7014,146.097 93.5,147C 81.7871,147.812 70.1204,147.645 58.5,146.5C 54.499,141.348 54.8323,136.514 59.5,132C 61.1341,131.506 62.8008,131.34 64.5,131.5C 64.5,127.5 64.5,123.5 64.5,119.5C 59.3585,119.356 57.0252,116.689 57.5,111.5C 56.8072,106.55 58.8072,103.55 63.5,102.5 Z"/></g>
<g><path style="opacity:1" fill="#fcfdfe" d="M 88.5,106.5 C 92.1309,106.16 95.4642,106.994 98.5,109C 100.013,112.429 99.3468,115.429 96.5,118C 87.8161,115.132 81.9828,117.965 79,126.5C 78.502,129.482 78.3354,132.482 78.5,135.5C 82.8333,135.5 87.1667,135.5 91.5,135.5C 91.5,138.167 91.5,140.833 91.5,143.5C 81.4944,143.666 71.4944,143.5 61.5,143C 59.0074,136.32 61.3407,133.82 68.5,135.5C 68.5,128.833 68.5,122.167 68.5,115.5C 61.8416,116.656 59.8416,114.156 62.5,108C 67.1667,107.333 71.8333,107.333 76.5,108C 77.2822,110.74 77.7822,113.574 78,116.5C 80.7379,112.26 84.2379,108.926 88.5,106.5 Z"/></g>
</svg>
