<?xml version="1.0" encoding="UTF-8"?>
<!DOCTYPE svg PUBLIC "-//W3C//DTD SVG 1.1//EN" "http://www.w3.org/Graphics/SVG/1.1/DTD/svg11.dtd">
<svg xmlns="http://www.w3.org/2000/svg" version="1.1" width="252px" height="252px" style="shape-rendering:geometricPrecision; text-rendering:geometricPrecision; image-rendering:optimizeQuality; fill-rule:evenodd; clip-rule:evenodd" xmlns:xlink="http://www.w3.org/1999/xlink">
<g><path style="opacity:0.004" fill="#fefffe" d="M 31.5,-0.5 C 31.8333,-0.5 32.1667,-0.5 32.5,-0.5C 32.5,-0.166667 32.5,0.166667 32.5,0.5C 32.1667,0.166667 31.8333,-0.166667 31.5,-0.5 Z"/></g>
<g><path style="opacity:1" fill="#87cdea" d="M 33.5,-0.5 C 33.8333,-0.5 34.1667,-0.5 34.5,-0.5C 35.1667,0.833333 35.8333,0.833333 36.5,-0.5C 37.1667,-0.5 37.8333,-0.5 38.5,-0.5C 38.8333,0.833333 39.1667,0.833333 39.5,-0.5C 40.1667,-0.5 40.8333,-0.5 41.5,-0.5C 42.1667,0.833333 42.8333,0.833333 43.5,-0.5C 44.1667,-0.5 44.8333,-0.5 45.5,-0.5C 45.8333,0.833333 46.1667,0.833333 46.5,-0.5C 102.167,-0.5 157.833,-0.5 213.5,-0.5C 210.902,0.472153 210.902,1.47215 213.5,2.5C 213.5,3.16667 213.833,3.5 214.5,3.5C 215.167,3.5 215.5,3.16667 215.5,2.5C 216.167,2.5 216.833,2.5 217.5,2.5C 217.328,3.49162 217.662,4.15829 218.5,4.5C 218.427,6.02694 219.094,7.02694 220.5,7.5C 220.833,8.83333 221.167,8.83333 221.5,7.5C 222.167,7.83333 222.833,8.16667 223.5,8.5C 223.5,8.83333 223.5,9.16667 223.5,9.5C 223.842,10.3382 224.508,10.6716 225.5,10.5C 225.842,11.3382 226.508,11.6716 227.5,11.5C 227.5,11.8333 227.5,12.1667 227.5,12.5C 230.931,18.4435 233.597,24.7768 235.5,31.5C 235.5,39.1667 235.5,46.8333 235.5,54.5C 235.667,98.8346 235.5,143.168 235,187.5C 230.5,204 220,214.5 203.5,219C 151.5,219.667 99.5,219.667 47.5,219C 33.7509,215.417 23.7509,207.25 17.5,194.5C 17.162,192.146 16.662,189.813 16,187.5C 15.3333,135.167 15.3333,82.8333 16,30.5C 16.8981,27.0447 18.0647,23.7113 19.5,20.5C 20.783,18.1318 22.4497,15.9651 24.5,14C 24.2716,13.6012 23.9382,13.4346 23.5,13.5C 23.5,12.8333 23.1667,12.5 22.5,12.5C 22.1667,12.5 21.8333,12.5 21.5,12.5C 21.1667,12.5 20.8333,12.5 20.5,12.5C 20.5,12.1667 20.5,11.8333 20.5,11.5C 20.8333,11.5 21.1667,11.5 21.5,11.5C 22.4013,10.7095 23.0679,9.70951 23.5,8.5C 24.6522,9.62495 25.6522,9.62495 26.5,8.5C 27.8946,9.81457 28.8946,9.48123 29.5,7.5C 30.1667,7.5 30.5,7.16667 30.5,6.5C 32.1898,6.14363 33.1898,5.14363 33.5,3.5C 34.3764,3.63088 35.0431,3.29755 35.5,2.5C 34.3984,1.82434 33.3984,1.15767 32.5,0.5C 33.1667,0.5 33.5,0.166667 33.5,-0.5 Z"/></g>
<g><path style="opacity:0.004" fill="#ececec" d="M 215.5,-0.5 C 215.833,-0.5 216.167,-0.5 216.5,-0.5C 223.032,0.929749 229.032,3.76308 234.5,8C 233.695,9.11268 233.028,10.2794 232.5,11.5C 229.833,12.5 229.833,13.5 232.5,14.5C 232.5,14.8333 232.5,15.1667 232.5,15.5C 231.883,15.6107 231.383,15.944 231,16.5C 230.5,15.3333 229.667,14.5 228.5,14C 229.712,12.8932 229.379,12.3932 227.5,12.5C 227.5,12.1667 227.5,11.8333 227.5,11.5C 228.067,10.5798 227.401,10.2465 225.5,10.5C 224.508,10.6716 223.842,10.3382 223.5,9.5C 224.644,8.15071 224.644,7.81738 223.5,8.5C 222.833,8.16667 222.167,7.83333 221.5,7.5C 221.167,7.5 220.833,7.5 220.5,7.5C 219.094,7.02694 218.427,6.02694 218.5,4.5C 218.672,3.50838 218.338,2.84171 217.5,2.5C 216.833,1.16667 216.167,1.16667 215.5,2.5C 214.833,2.5 214.5,2.83333 214.5,3.5C 213.833,3.5 213.5,3.16667 213.5,2.5C 214.167,1.5 214.833,0.5 215.5,-0.5 Z"/></g>
<g><path style="opacity:0.004" fill="#fefffe" d="M 29.5,0.5 C 30.8333,1.16667 30.8333,1.16667 29.5,0.5 Z"/></g>
<g><path style="opacity:0.004" fill="#f8f8f8" d="M 33.5,3.5 C 33.1898,5.14363 32.1898,6.14363 30.5,6.5C 29.8333,6.5 29.5,6.83333 29.5,7.5C 28.8946,9.48123 27.8946,9.81457 26.5,8.5C 25.5313,7.69057 24.6979,6.69057 24,5.5C 23.5172,6.44802 23.3505,7.44802 23.5,8.5C 22.3569,8.09186 21.3569,7.42519 20.5,6.5C 22.1693,5.32913 23.6693,3.9958 25,2.5C 26.6458,4.14083 27.6458,3.8075 28,1.5C 28.3076,2.30806 28.8076,2.97473 29.5,3.5C 31.0233,3.20723 32.3566,3.20723 33.5,3.5 Z"/></g>
<g><path style="opacity:0.004" fill="#e1e1e1" d="M 21.5,11.5 C 21.1667,11.5 20.8333,11.5 20.5,11.5C 19.1667,11.8333 19.1667,12.1667 20.5,12.5C 20.5,12.8333 20.5,13.1667 20.5,13.5C 20.1667,13.5 19.8333,13.5 19.5,13.5C 15.7113,14.5961 15.7113,15.2627 19.5,15.5C 19.3059,17.9118 17.9726,18.9118 15.5,18.5C 14.8333,18.5 14.5,18.8333 14.5,19.5C 13.6554,20.6715 12.9887,22.0048 12.5,23.5C 12.5,23.8333 12.5,24.1667 12.5,24.5C 11.3556,26.1002 10.1889,27.7669 9,29.5C 8.53566,28.9056 8.36899,28.2389 8.5,27.5C 8.5,27.1667 8.5,26.8333 8.5,26.5C 7.27187,25.6935 6.27187,24.6935 5.5,23.5C 5.38929,22.8826 5.05596,22.3826 4.5,22C 5.70143,21.0975 6.53476,19.9308 7,18.5C 8.07298,19.2797 9.23965,19.113 10.5,18C 9.94404,17.6174 9.61071,17.1174 9.5,16.5C 10.29,15.3915 10.79,14.0581 11,12.5C 12.8402,13.8331 13.3402,13.6665 12.5,12C 15.2366,10.3859 17.4033,8.21923 19,5.5C 18.8047,7.12609 18.8047,8.79275 19,10.5C 19.3076,9.69194 19.8076,9.02527 20.5,8.5C 20.5173,9.39374 20.8506,10.3937 21.5,11.5 Z M 8.5,26.5 C 8.51731,24.9719 9.18398,24.4719 10.5,25C 9.9558,25.7172 9.28913,26.2172 8.5,26.5 Z"/></g>
<g><path style="opacity:0.004" fill="#000000" d="M 24.5,10.5 C 27.0009,10.5109 27.1676,11.1776 25,12.5C 24.5357,11.9056 24.369,11.2389 24.5,10.5 Z"/></g>
<g><path style="opacity:0.004" fill="#fefffe" d="M 237.5,10.5 C 239.933,11.5477 239.933,12.2144 237.5,12.5C 237.5,11.8333 237.5,11.1667 237.5,10.5 Z"/></g>
<g><path style="opacity:0.004" fill="#fefffe" d="M 21.5,12.5 C 21.8333,12.5 22.1667,12.5 22.5,12.5C 22.5,12.8333 22.5,13.1667 22.5,13.5C 21.7095,14.4013 20.7095,15.0679 19.5,15.5C 19.5,14.8333 19.5,14.1667 19.5,13.5C 19.8333,13.5 20.1667,13.5 20.5,13.5C 21.1667,13.5 21.5,13.1667 21.5,12.5 Z"/></g>
<g><path style="opacity:0.004" fill="#3b3b3b" d="M 233.5,13.5 C 233.5,14.1667 233.833,14.5 234.5,14.5C 234.5,15.1667 234.167,15.5 233.5,15.5C 233.167,15.5 232.833,15.5 232.5,15.5C 232.5,15.1667 232.5,14.8333 232.5,14.5C 232.5,13.8333 232.833,13.5 233.5,13.5 Z"/></g>
<g><path style="opacity:0.004" fill="#d9d9d9" d="M 237.5,10.5 C 235.067,10.7856 235.067,11.4523 237.5,12.5C 237.393,14.3786 237.893,14.7119 239,13.5C 240,14.1667 241,14.8333 242,15.5C 241.645,16.9594 241.811,18.2928 242.5,19.5C 241.209,19.2627 240.209,19.596 239.5,20.5C 238.833,20.5 238.5,20.8333 238.5,21.5C 237.448,21.6495 236.448,21.4828 235.5,21C 233.826,19.4941 232.826,17.6607 232.5,15.5C 232.833,15.5 233.167,15.5 233.5,15.5C 233.56,16.0431 233.893,16.3764 234.5,16.5C 235.773,15.7435 235.773,15.0768 234.5,14.5C 233.833,14.5 233.5,14.1667 233.5,13.5C 233.167,12.8333 232.833,12.1667 232.5,11.5C 233.756,11.0962 234.923,10.4295 236,9.5C 236.765,9.56993 237.265,9.90326 237.5,10.5 Z M 238.5,15.5 C 241.012,16.2162 241.012,17.2162 238.5,18.5C 237.438,17.5754 237.438,16.5754 238.5,15.5 Z"/></g>
<g><path style="opacity:0.004" fill="#fefffe" d="M 9.5,16.5 C 8.83333,15.1667 8.83333,15.1667 9.5,16.5 Z"/></g>
<g><path style="opacity:0.004" fill="#f2f2f2" d="M 247.5,29.5 C 246.5,26.8333 245.5,26.8333 244.5,29.5C 243.609,30.1098 242.609,30.4431 241.5,30.5C 241.64,28.8762 240.973,27.7096 239.5,27C 240.094,26.5357 240.761,26.369 241.5,26.5C 242.833,26.1667 242.833,25.8333 241.5,25.5C 240.508,25.6716 239.842,25.3382 239.5,24.5C 240.167,24.5 240.5,24.1667 240.5,23.5C 242.105,22.9941 242.439,22.3274 241.5,21.5C 241.5,21.1667 241.5,20.8333 241.5,20.5C 242.167,20.5 242.5,20.1667 242.5,19.5C 243.117,19.3893 243.617,19.056 244,18.5C 244.309,19.7659 244.809,20.9326 245.5,22C 245.167,22.3333 244.833,22.6667 244.5,23C 247.669,24.4823 248.669,26.649 247.5,29.5 Z"/></g>
<g><path style="opacity:0.008" fill="#656565" d="M 22.5,13.5 C 22.8333,13.5 23.1667,13.5 23.5,13.5C 23.9382,13.4346 24.2716,13.6012 24.5,14C 22.4497,15.9651 20.783,18.1318 19.5,20.5C 18.0689,20.8807 17.2355,21.8807 17,23.5C 15.7232,24.0718 14.2232,24.0718 12.5,23.5C 12.9887,22.0048 13.6554,20.6715 14.5,19.5C 15.1667,19.5 15.5,19.1667 15.5,18.5C 17.9726,18.9118 19.3059,17.9118 19.5,15.5C 20.7095,15.0679 21.7095,14.4013 22.5,13.5 Z"/></g>
<g><path style="opacity:0.004" fill="#1d1d1d" d="M 239.5,20.5 C 240.167,20.5 240.833,20.5 241.5,20.5C 241.5,20.8333 241.5,21.1667 241.5,21.5C 240.662,21.8417 240.328,22.5084 240.5,23.5C 240.167,23.5 239.833,23.5 239.5,23.5C 239.5,23.1667 239.5,22.8333 239.5,22.5C 239.5,21.8333 239.5,21.1667 239.5,20.5 Z"/></g>
<g><path style="opacity:0.004" fill="#fefffe" d="M 5.5,23.5 C 5.46056,24.5832 5.12723,25.5832 4.5,26.5C 5.24269,27.1818 5.90935,27.8485 6.5,28.5C 5.16667,28.5 4.5,29.1667 4.5,30.5C 3.44802,30.6495 2.44802,30.4828 1.5,30C 2.56841,27.5619 3.90175,25.3952 5.5,23.5 Z"/></g>
<g><path style="opacity:0.012" fill="#545454" d="M 238.5,22.5 C 238.833,22.5 239.167,22.5 239.5,22.5C 239.5,22.8333 239.5,23.1667 239.5,23.5C 239.5,23.8333 239.5,24.1667 239.5,24.5C 239.842,25.3382 240.508,25.6716 241.5,25.5C 241.5,25.8333 241.5,26.1667 241.5,26.5C 240.761,26.369 240.094,26.5357 239.5,27C 240.973,27.7096 241.64,28.8762 241.5,30.5C 240.178,30.33 239.011,30.6634 238,31.5C 237.932,28.6807 236.766,26.514 234.5,25C 235.471,23.5187 236.804,22.6854 238.5,22.5 Z"/></g>
<g><path style="opacity:0.004" fill="#f3f3f3" d="M 244.5,29.5 C 245.5,30.8333 246.5,30.8333 247.5,29.5C 248.091,30.1515 248.757,30.8182 249.5,31.5C 247.457,31.5273 246.124,32.8606 245.5,35.5C 243.618,34.779 243.285,33.779 244.5,32.5C 245.833,32.1667 245.833,31.8333 244.5,31.5C 244.5,30.8333 244.5,30.1667 244.5,29.5 Z"/></g>
<g><path style="opacity:0.007" fill="#393939" d="M 12.5,24.5 C 14.1157,26.4158 13.7823,27.9158 11.5,29C 12.91,29.3678 13.91,30.2011 14.5,31.5C 14.1543,32.6956 13.6543,32.6956 13,31.5C 12.6905,32.7659 12.1905,33.9326 11.5,35C 11.8333,35.3333 12.1667,35.6667 12.5,36C 10.4705,36.5482 8.47049,37.7149 6.5,39.5C 6.56544,39.0618 6.39877,38.7284 6,38.5C 4.91253,40.9316 4.41253,40.5983 4.5,37.5C 5.16667,37.5 5.5,37.1667 5.5,36.5C 7.83625,34.9272 7.83625,33.5939 5.5,32.5C 5.16667,31.8333 4.83333,31.1667 4.5,30.5C 5.83333,30.5 6.5,29.8333 6.5,28.5C 7.16667,28.1667 7.83333,27.8333 8.5,27.5C 8.36899,28.2389 8.53566,28.9056 9,29.5C 10.1889,27.7669 11.3556,26.1002 12.5,24.5 Z"/></g>
<g><path style="opacity:0.004" fill="#f0f0f0" d="M 5.5,32.5 C 7.83625,33.5939 7.83625,34.9272 5.5,36.5C 4.5,35.1667 3.5,35.1667 2.5,36.5C 2.16667,35.1667 1.83333,35.1667 1.5,36.5C 0.833333,36.5 0.166667,36.5 -0.5,36.5C -0.5,36.1667 -0.5,35.8333 -0.5,35.5C 0.794229,34.7101 1.9609,33.7101 3,32.5C 3.76971,33.5981 4.60305,33.5981 5.5,32.5 Z"/></g>
<g><path style="opacity:0.024" fill="#323232" d="M 227.5,12.5 C 229.379,12.3932 229.712,12.8932 228.5,14C 229.667,14.5 230.5,15.3333 231,16.5C 231.383,15.944 231.883,15.6107 232.5,15.5C 232.826,17.6607 233.826,19.4941 235.5,21C 236.448,21.4828 237.448,21.6495 238.5,21.5C 238.5,21.8333 238.5,22.1667 238.5,22.5C 236.804,22.6854 235.471,23.5187 234.5,25C 236.766,26.514 237.932,28.6807 238,31.5C 239.011,30.6634 240.178,30.33 241.5,30.5C 242.609,30.4431 243.609,30.1098 244.5,29.5C 244.5,30.1667 244.5,30.8333 244.5,31.5C 244.5,31.8333 244.5,32.1667 244.5,32.5C 243.285,33.779 243.618,34.779 245.5,35.5C 246.5,35.5 247.5,35.5 248.5,35.5C 248.5,36.1667 248.167,36.5 247.5,36.5C 246.596,37.209 246.263,38.209 246.5,39.5C 246.5,40.1667 246.833,40.5 247.5,40.5C 246.89,41.391 246.557,42.391 246.5,43.5C 246.189,44.4778 245.522,45.1445 244.5,45.5C 243.24,43.6471 243.24,41.8138 244.5,40C 242.5,38.6667 240.5,37.3333 238.5,36C 239.956,35.5774 240.456,34.7441 240,33.5C 239.586,33.9574 239.086,34.2907 238.5,34.5C 237.712,33.2299 236.712,32.2299 235.5,31.5C 233.597,24.7768 230.931,18.4435 227.5,12.5 Z"/></g>
<g><path style="opacity:0.004" fill="#fefffe" d="M 249.5,35.5 C 249.167,35.5 248.833,35.5 248.5,35.5C 247.537,34.6365 247.537,33.9698 248.5,33.5C 249.298,33.9569 249.631,34.6236 249.5,35.5 Z"/></g>
<g><path style="opacity:0.004" fill="#fefffe" d="M 249.5,35.5 C 250.833,36.1667 250.833,36.1667 249.5,35.5 Z"/></g>
<g><path style="opacity:0.004" fill="#fefffe" d="M 1.5,36.5 C 1.83333,36.5 2.16667,36.5 2.5,36.5C 2.31468,37.1701 1.98135,37.1701 1.5,36.5 Z"/></g>
<g><path style="opacity:0.004" fill="#ededed" d="M 247.5,36.5 C 248.287,38.1042 249.62,38.7709 251.5,38.5C 251.5,38.8333 251.5,39.1667 251.5,39.5C 250.167,39.8333 250.167,40.1667 251.5,40.5C 251.5,41.1667 251.5,41.8333 251.5,42.5C 250.167,42.8333 250.167,43.1667 251.5,43.5C 251.5,43.8333 251.5,44.1667 251.5,44.5C 250.662,44.8417 250.328,45.5084 250.5,46.5C 249.5,45.1667 248.5,45.1667 247.5,46.5C 247.737,45.209 247.404,44.209 246.5,43.5C 246.557,42.391 246.89,41.391 247.5,40.5C 246.833,40.5 246.5,40.1667 246.5,39.5C 246.263,38.209 246.596,37.209 247.5,36.5 Z"/></g>
<g><path style="opacity:0.004" fill="#fefffe" d="M -0.5,37.5 C 0.833333,38.1667 0.833333,38.8333 -0.5,39.5C -0.5,38.8333 -0.5,38.1667 -0.5,37.5 Z"/></g>
<g><path style="opacity:0.004" fill="#f5f5f5" d="M 2.5,42.5 C 4.69772,42.4088 5.03105,43.0755 3.5,44.5C 3.5,45.5 3.5,46.5 3.5,47.5C 2.76589,48.7079 2.43255,50.0413 2.5,51.5C 1.83333,51.5 1.5,51.8333 1.5,52.5C 0.833333,52.1667 0.166667,51.8333 -0.5,51.5C -0.5,48.5 -0.5,45.5 -0.5,42.5C 1.5065,41.3215 1.83984,41.8215 0.5,44C 2.13109,45.8356 2.79776,45.3356 2.5,42.5 Z"/></g>
<g><path style="opacity:0.008" fill="#757575" d="M 4.5,37.5 C 4.41253,40.5983 4.91253,40.9316 6,38.5C 6.39877,38.7284 6.56544,39.0618 6.5,39.5C 7.87104,42.1339 7.37104,44.4673 5,46.5C 4.72158,45.5842 4.22158,44.9175 3.5,44.5C 5.03105,43.0755 4.69772,42.4088 2.5,42.5C 1.95498,40.6011 2.62164,38.9345 4.5,37.5 Z"/></g>
<g><path style="opacity:0.067" fill="#131313" d="M 235.5,31.5 C 236.712,32.2299 237.712,33.2299 238.5,34.5C 239.086,34.2907 239.586,33.9574 240,33.5C 240.456,34.7441 239.956,35.5774 238.5,36C 240.5,37.3333 242.5,38.6667 244.5,40C 243.24,41.8138 243.24,43.6471 244.5,45.5C 245.522,45.1445 246.189,44.4778 246.5,43.5C 247.404,44.209 247.737,45.209 247.5,46.5C 247.5,46.8333 247.5,47.1667 247.5,47.5C 246.178,47.33 245.011,47.6634 244,48.5C 243.627,50.6982 243.127,52.8649 242.5,55C 243.384,56.098 244.384,56.598 245.5,56.5C 244.531,58.5728 243.865,60.7395 243.5,63C 243.755,64.3261 244.422,65.3261 245.5,66C 243.431,66.3242 243.098,67.1575 244.5,68.5C 242.724,69.3148 242.057,70.4815 242.5,72C 244.468,73.4615 245.802,75.2948 246.5,77.5C 247.512,78.8717 248.512,80.205 249.5,81.5C 249.5,82.1667 249.5,82.8333 249.5,83.5C 249.833,83.5 250.167,83.5 250.5,83.5C 250.649,84.552 250.483,85.552 250,86.5C 249.31,85.2617 248.81,85.2617 248.5,86.5C 247.167,87.8333 247.167,89.1667 248.5,90.5C 249.405,91.7024 249.405,93.0357 248.5,94.5C 248.5,95.1667 248.833,95.5 249.5,95.5C 249.5,95.8333 249.5,96.1667 249.5,96.5C 250.11,97.391 250.443,98.391 250.5,99.5C 250.167,99.5 249.833,99.5 249.5,99.5C 247.798,96.9744 246.132,97.1411 244.5,100C 245.509,101.168 246.509,102.335 247.5,103.5C 246.726,104.711 245.893,104.711 245,103.5C 244.505,105.473 244.338,107.473 244.5,109.5C 242.223,109.137 241.556,108.137 242.5,106.5C 241.687,105.186 240.687,104.019 239.5,103C 241.053,101.903 242.386,100.57 243.5,99C 242.833,98.6667 242.167,98.3333 241.5,98C 242.573,96.7496 242.573,95.4162 241.5,94C 241.905,93.0546 242.572,92.3879 243.5,92C 240.833,91.3333 240.833,90.6667 243.5,90C 242.891,87.9419 241.891,87.1086 240.5,87.5C 243.167,83.8175 242.834,80.6508 239.5,78C 240.167,77.6667 240.833,77.3333 241.5,77C 238.294,74.3787 237.961,71.5454 240.5,68.5C 236.63,65.3533 236.963,61.8533 241.5,58C 240.285,55.9045 239.451,56.0712 239,58.5C 238.667,58.1667 238.333,57.8333 238,57.5C 238,56.1667 238,54.8333 238,53.5C 237.329,54.2524 236.496,54.5858 235.5,54.5C 235.5,46.8333 235.5,39.1667 235.5,31.5 Z"/></g>
<g><path style="opacity:0.004" fill="#fefffe" d="M 250.5,46.5 C 250.833,46.5 251.167,46.5 251.5,46.5C 251.5,47.5 251.5,48.5 251.5,49.5C 250.167,49.8333 250.167,50.1667 251.5,50.5C 251.5,51.5 251.5,52.5 251.5,53.5C 250.167,53.8333 250.167,54.1667 251.5,54.5C 251.5,55.1667 251.5,55.8333 251.5,56.5C 250.167,56.8333 250.167,57.1667 251.5,57.5C 251.5,60.1667 251.5,62.8333 251.5,65.5C 251.167,65.5 250.833,65.5 250.5,65.5C 250.5,65.1667 250.5,64.8333 250.5,64.5C 249.972,63.2794 249.305,62.1127 248.5,61C 248.728,60.6012 249.062,60.4346 249.5,60.5C 250.833,60.1667 250.833,59.8333 249.5,59.5C 249.703,57.6096 249.037,56.1096 247.5,55C 248.416,54.7216 249.082,54.2216 249.5,53.5C 249.5,52.8333 249.167,52.5 248.5,52.5C 247.962,50.8828 247.629,49.2161 247.5,47.5C 249.196,49.129 250.196,48.7957 250.5,46.5 Z"/></g>
<g><path style="opacity:0.02" fill="#393939" d="M 3.5,47.5 C 5.40472,48.4642 6.40472,50.1309 6.5,52.5C 5.6102,53.9555 5.6102,55.2888 6.5,56.5C 5.83333,57.1667 5.16667,57.8333 4.5,58.5C 4.84569,59.6956 5.34569,59.6956 6,58.5C 6.77864,60.8071 6.27864,62.8071 4.5,64.5C 6.89803,66.6213 7.0647,68.9546 5,71.5C 4.32924,70.7476 3.4959,70.4142 2.5,70.5C 1.61913,68.6026 1.2858,66.9359 1.5,65.5C 1.5,65.1667 1.5,64.8333 1.5,64.5C 3.8418,64.2252 3.8418,63.3919 1.5,62C 4.09723,61.2208 4.09723,60.7208 1.5,60.5C 1.5,59.8333 1.5,59.1667 1.5,58.5C 2.64991,59.8502 3.31658,59.6836 3.5,58C 2.77702,55.6606 2.44369,53.494 2.5,51.5C 2.43255,50.0413 2.76589,48.7079 3.5,47.5 Z"/></g>
<g><path style="opacity:0.004" fill="#e7e7e7" d="M 2.5,51.5 C 2.44369,53.494 2.77702,55.6606 3.5,58C 3.31658,59.6836 2.64991,59.8502 1.5,58.5C 1.16667,58.5 0.833333,58.5 0.5,58.5C 1.81457,57.1054 1.48123,56.1054 -0.5,55.5C -0.5,55.1667 -0.5,54.8333 -0.5,54.5C 0.5,54.1667 1.16667,53.5 1.5,52.5C 2.16667,52.5 2.5,52.1667 2.5,51.5 Z"/></g>
<g><path style="opacity:0.004" fill="#efefef" d="M -0.5,58.5 C -0.166667,58.5 0.166667,58.5 0.5,58.5C 0.32842,59.4916 0.661754,60.1583 1.5,60.5C 4.09723,60.7208 4.09723,61.2208 1.5,62C 3.8418,63.3919 3.8418,64.2252 1.5,64.5C 0.166667,64.8333 0.166667,65.1667 1.5,65.5C 1.2858,66.9359 1.61913,68.6026 2.5,70.5C 2.16667,70.5 1.83333,70.5 1.5,70.5C 1.15829,69.6618 0.491622,69.3284 -0.5,69.5C -0.5,68.8333 -0.5,68.1667 -0.5,67.5C 0.833333,67.1667 0.833333,66.8333 -0.5,66.5C -0.5,63.8333 -0.5,61.1667 -0.5,58.5 Z"/></g>
<g><path style="opacity:0.027" fill="#303030" d="M 247.5,47.5 C 247.629,49.2161 247.962,50.8828 248.5,52.5C 249.167,52.5 249.5,52.8333 249.5,53.5C 249.082,54.2216 248.416,54.7216 247.5,55C 249.037,56.1096 249.703,57.6096 249.5,59.5C 249.5,59.8333 249.5,60.1667 249.5,60.5C 249.062,60.4346 248.728,60.6012 248.5,61C 249.305,62.1127 249.972,63.2794 250.5,64.5C 249.167,64.8333 249.167,65.1667 250.5,65.5C 250.167,66.1667 249.833,66.8333 249.5,67.5C 247.952,67.8212 247.285,68.8212 247.5,70.5C 246.861,71.0968 246.528,71.9302 246.5,73C 246.684,74.3756 247.351,75.2089 248.5,75.5C 248.167,76.5 247.5,77.1667 246.5,77.5C 245.802,75.2948 244.468,73.4615 242.5,72C 242.057,70.4815 242.724,69.3148 244.5,68.5C 243.098,67.1575 243.431,66.3242 245.5,66C 244.422,65.3261 243.755,64.3261 243.5,63C 243.865,60.7395 244.531,58.5728 245.5,56.5C 244.384,56.598 243.384,56.098 242.5,55C 243.127,52.8649 243.627,50.6982 244,48.5C 245.011,47.6634 246.178,47.33 247.5,47.5 Z"/></g>
<g><path style="opacity:0.004" fill="#d6d6d6" d="M 249.5,67.5 C 250.167,67.5 250.833,67.5 251.5,67.5C 251.5,67.8333 251.5,68.1667 251.5,68.5C 250.599,69.2905 249.932,70.2905 249.5,71.5C 248.833,71.1667 248.167,70.8333 247.5,70.5C 247.285,68.8212 247.952,67.8212 249.5,67.5 Z"/></g>
<g><path style="opacity:0.004" fill="#fefffe" d="M -0.5,70.5 C 0.166667,70.5 0.5,70.8333 0.5,71.5C 0.166667,71.1667 -0.166667,70.8333 -0.5,70.5 Z"/></g>
<g><path style="opacity:0.008" fill="#8d8d8d" d="M 247.5,70.5 C 247.557,71.609 247.89,72.609 248.5,73.5C 248.5,74.1667 248.5,74.8333 248.5,75.5C 247.351,75.2089 246.684,74.3756 246.5,73C 246.528,71.9302 246.861,71.0968 247.5,70.5 Z"/></g>
<g><path style="opacity:0.005" fill="#000000" d="M 247.5,70.5 C 248.167,70.8333 248.833,71.1667 249.5,71.5C 249.5,72.1667 249.5,72.8333 249.5,73.5C 249.167,73.5 248.833,73.5 248.5,73.5C 247.89,72.609 247.557,71.609 247.5,70.5 Z"/></g>
<g><path style="opacity:0.004" fill="#e4e4e4" d="M 0.5,71.5 C 0.833333,71.5 1.16667,71.5 1.5,71.5C 2.68566,72.7054 2.68566,74.0387 1.5,75.5C 0.833333,75.5 0.166667,75.5 -0.5,75.5C -0.5,74.5 -0.5,73.5 -0.5,72.5C 0.166667,72.5 0.5,72.1667 0.5,71.5 Z"/></g>
<g><path style="opacity:0.004" fill="#c6c6c6" d="M 249.5,71.5 C 250.167,72.1667 250.833,72.8333 251.5,73.5C 251.5,73.8333 251.5,74.1667 251.5,74.5C 250.508,74.6716 249.842,74.3382 249.5,73.5C 249.5,72.8333 249.5,72.1667 249.5,71.5 Z"/></g>
<g><path style="opacity:0.004" fill="#fefffe" d="M 1.5,75.5 C 2.16667,75.8333 2.83333,76.1667 3.5,76.5C 3.06795,77.7095 2.40128,78.7095 1.5,79.5C 1.15829,78.6618 0.491622,78.3284 -0.5,78.5C -0.5,77.8333 -0.5,77.1667 -0.5,76.5C 0.491622,76.6716 1.15829,76.3382 1.5,75.5 Z"/></g>
<g><path style="opacity:0.004" fill="#c8c8c8" d="M 248.5,75.5 C 249.609,75.5569 250.609,75.8902 251.5,76.5C 251.5,76.8333 251.5,77.1667 251.5,77.5C 250.761,77.369 250.094,77.5357 249.5,78C 250.171,78.9862 250.171,80.1529 249.5,81.5C 248.512,80.205 247.512,78.8717 246.5,77.5C 247.5,77.1667 248.167,76.5 248.5,75.5 Z"/></g>
<g><path style="opacity:1" fill="#fbfdfe" d="M 147.5,79.5 C 151.509,79.0136 153.342,80.6803 153,84.5C 145.874,100.711 139.041,117.045 132.5,133.5C 125.949,135.782 124.115,133.782 127,127.5C 133.557,111.314 140.39,95.3138 147.5,79.5 Z"/></g>
<g><path style="opacity:0.004" fill="#fefffe" d="M 249.5,81.5 C 250.167,81.5 250.833,81.5 251.5,81.5C 251.5,82.1667 251.5,82.8333 251.5,83.5C 251.167,83.5 250.833,83.5 250.5,83.5C 250.167,83.5 249.833,83.5 249.5,83.5C 249.5,82.8333 249.5,82.1667 249.5,81.5 Z"/></g>
<g><path style="opacity:0.004" fill="#fefffe" d="M -0.5,83.5 C -0.166667,83.5 0.166667,83.5 0.5,83.5C 0.5,84.1667 0.833333,84.5 1.5,84.5C 1.16667,85.1667 0.833333,85.8333 0.5,86.5C 0.166667,86.5 -0.166667,86.5 -0.5,86.5C -0.5,85.5 -0.5,84.5 -0.5,83.5 Z"/></g>
<g><path style="opacity:0.004" fill="#e7e7e7" d="M 1.5,86.5 C 4.29641,90.1006 3.62975,91.7673 -0.5,91.5C -0.5,90.8333 -0.5,90.1667 -0.5,89.5C 0.238911,89.631 0.905578,89.4643 1.5,89C 0.401911,88.2303 0.401911,87.397 1.5,86.5 Z"/></g>
<g><path style="opacity:0.008" fill="#8a8a8a" d="M 248.5,86.5 C 249.167,87.1667 249.833,87.8333 250.5,88.5C 249.833,88.5 249.5,88.8333 249.5,89.5C 249.5,90.1667 249.167,90.5 248.5,90.5C 247.167,89.1667 247.167,87.8333 248.5,86.5 Z"/></g>
<g><path style="opacity:0.004" fill="#d8d8d8" d="M 250.5,88.5 C 250.833,88.5 251.167,88.5 251.5,88.5C 251.5,89.1667 251.5,89.8333 251.5,90.5C 250.167,90.8333 250.167,91.1667 251.5,91.5C 251.5,92.5 251.5,93.5 251.5,94.5C 250.833,94.8333 250.167,95.1667 249.5,95.5C 248.833,95.5 248.5,95.1667 248.5,94.5C 249.405,93.0357 249.405,91.7024 248.5,90.5C 249.167,90.5 249.5,90.1667 249.5,89.5C 250.167,89.5 250.5,89.1667 250.5,88.5 Z"/></g>
<g><path style="opacity:1" fill="#f9fcfe" d="M 72.5,89.5 C 76.1646,89.8171 77.6646,91.8171 77,95.5C 70.9116,98.7943 64.7449,101.961 58.5,105C 64.3419,108.421 70.3419,111.588 76.5,114.5C 77.6641,117.506 76.6641,119.506 73.5,120.5C 64.893,116.863 56.5597,112.696 48.5,108C 47.2404,106.186 47.2404,104.353 48.5,102.5C 56.5618,98.1382 64.5618,93.8049 72.5,89.5 Z"/></g>
<g><path style="opacity:1" fill="#f9fcfe" d="M 165.5,89.5 C 175.003,93.5017 184.17,98.1684 193,103.5C 193.667,104.833 193.667,106.167 193,107.5C 184.911,111.794 176.745,115.961 168.5,120C 163.974,120.299 162.64,118.299 164.5,114C 170.325,111.255 175.992,108.255 181.5,105C 175.833,102.167 170.167,99.3333 164.5,96.5C 163.154,93.9004 163.488,91.5671 165.5,89.5 Z"/></g>
<g><path style="opacity:0.004" fill="#ebebeb" d="M -0.5,93.5 C 0.166667,93.5 0.833333,93.5 1.5,93.5C 1.5,94.1667 1.83333,94.5 2.5,94.5C 3.46192,96.453 3.79526,98.2863 3.5,100C 2.9558,100.717 2.28913,101.217 1.5,101.5C 1.16667,100.167 0.833333,100.167 0.5,101.5C 0.166667,101.5 -0.166667,101.5 -0.5,101.5C -0.5,100.5 -0.5,99.5 -0.5,98.5C 0.833333,98.1667 0.833333,97.8333 -0.5,97.5C -0.5,97.1667 -0.5,96.8333 -0.5,96.5C 2.16667,96.1667 2.16667,95.8333 -0.5,95.5C -0.5,94.8333 -0.5,94.1667 -0.5,93.5 Z"/></g>
<g><path style="opacity:0.024" fill="#363636" d="M 3.5,76.5 C 5.0741,80.0193 6.0741,83.8527 6.5,88C 4.18451,90.4755 4.51784,92.8089 7.5,95C 8.50117,97.1593 8.50117,99.4926 7.5,102C 8.16667,103 8.83333,104 9.5,105C 8.25591,105.456 7.42258,104.956 7,103.5C 5.98873,104.337 4.82207,104.67 3.5,104.5C 3.16667,103.5 2.5,102.833 1.5,102.5C 0.833333,102.5 0.5,102.167 0.5,101.5C 0.833333,101.5 1.16667,101.5 1.5,101.5C 2.28913,101.217 2.9558,100.717 3.5,100C 3.79526,98.2863 3.46192,96.453 2.5,94.5C 1.83333,94.5 1.5,94.1667 1.5,93.5C 1.15829,92.6618 0.491622,92.3284 -0.5,92.5C -0.5,92.1667 -0.5,91.8333 -0.5,91.5C 3.62975,91.7673 4.29641,90.1006 1.5,86.5C 1.16667,86.5 0.833333,86.5 0.5,86.5C 0.833333,85.8333 1.16667,85.1667 1.5,84.5C 0.833333,84.5 0.5,84.1667 0.5,83.5C 0.5,82.8333 0.166667,82.5 -0.5,82.5C -0.5,82.1667 -0.5,81.8333 -0.5,81.5C 0.166667,80.8333 0.833333,80.1667 1.5,79.5C 2.40128,78.7095 3.06795,77.7095 3.5,76.5 Z"/></g>
<g><path style="opacity:1" fill="#fbfdfe" d="M 87.5,94.5 C 91.1817,94.3347 94.8484,94.5014 98.5,95C 99.2638,97.0693 99.7638,99.236 100,101.5C 102.167,99.3333 104.333,97.1667 106.5,95C 110.244,94.0715 113.744,94.5715 117,96.5C 117.392,99.387 116.392,101.72 114,103.5C 108.143,101.264 103.809,102.93 101,108.5C 100.502,111.482 100.335,114.482 100.5,117.5C 103.85,117.335 107.183,117.502 110.5,118C 111.554,119.388 111.72,120.888 111,122.5C 102.912,123.648 94.7457,123.815 86.5,123C 85.5939,121.301 85.2606,119.467 85.5,117.5C 87.8333,117.5 90.1667,117.5 92.5,117.5C 92.5,111.833 92.5,106.167 92.5,100.5C 90.5,100.5 88.5,100.5 86.5,100.5C 86.3253,98.3792 86.6586,96.3792 87.5,94.5 Z"/></g>
<g><path style="opacity:0.004" fill="#fefffe" d="M 249.5,96.5 C 250.167,96.5 250.833,96.5 251.5,96.5C 251.5,98.1667 251.5,99.8333 251.5,101.5C 250.833,101.833 250.167,102.167 249.5,102.5C 248.494,101.604 248.494,100.938 249.5,100.5C 250.167,100.5 250.5,100.167 250.5,99.5C 250.443,98.391 250.11,97.391 249.5,96.5 Z"/></g>
<g><path style="opacity:0.004" fill="#fefffe" d="M 1.5,102.5 C 2.5,102.833 3.16667,103.5 3.5,104.5C 2.83333,104.5 2.5,104.833 2.5,105.5C 0.518768,104.895 0.185435,103.895 1.5,102.5 Z"/></g>
<g><path style="opacity:0.004" fill="#fefffe" d="M 251.5,103.5 C 251.5,103.833 251.5,104.167 251.5,104.5C 250.83,104.019 250.83,103.685 251.5,103.5 Z"/></g>
<g><path style="opacity:0.004" fill="#fefffe" d="M 251.5,105.5 C 251.5,106.833 251.5,108.167 251.5,109.5C 250.167,110.167 250.167,110.833 251.5,111.5C 251.5,111.833 251.5,112.167 251.5,112.5C 251.167,112.5 250.833,112.5 250.5,112.5C 249.508,112.672 248.842,112.338 248.5,111.5C 249.167,111.5 249.5,111.167 249.5,110.5C 248.494,109.604 248.494,108.938 249.5,108.5C 250.833,108.167 250.833,107.833 249.5,107.5C 249.5,107.167 249.5,106.833 249.5,106.5C 250.167,106.167 250.833,105.833 251.5,105.5 Z"/></g>
<g><path style="opacity:0.004" fill="#fefffe" d="M -0.5,106.5 C 0.833333,107.167 0.833333,107.167 -0.5,106.5 Z"/></g>
<g><path style="opacity:0.012" fill="#747474" d="M 1.5,114.5 C 1.5,113.167 0.833333,112.5 -0.5,112.5C -0.5,112.167 -0.5,111.833 -0.5,111.5C 0.166667,111.5 0.833333,111.5 1.5,111.5C 2.92654,109.852 3.75987,107.852 4,105.5C 4.66667,108.5 4.66667,111.5 4,114.5C 3.23029,115.598 2.39695,115.598 1.5,114.5 Z"/></g>
<g><path style="opacity:0.012" fill="#3b3b3b" d="M 249.5,99.5 C 249.5,99.8333 249.5,100.167 249.5,100.5C 248.494,100.938 248.494,101.604 249.5,102.5C 248.595,103.964 248.595,105.298 249.5,106.5C 249.5,106.833 249.5,107.167 249.5,107.5C 249.5,107.833 249.5,108.167 249.5,108.5C 248.494,108.938 248.494,109.604 249.5,110.5C 248.833,110.5 248.5,110.833 248.5,111.5C 248.842,112.338 249.508,112.672 250.5,112.5C 250.082,113.222 249.416,113.722 248.5,114C 249.056,114.383 249.389,114.883 249.5,115.5C 248.167,115.833 248.167,116.167 249.5,116.5C 249.167,117.167 248.833,117.833 248.5,118.5C 248.5,119.167 248.833,119.5 249.5,119.5C 249.5,120.833 250.167,121.5 251.5,121.5C 251.5,121.833 251.5,122.167 251.5,122.5C 250.508,122.328 249.842,122.662 249.5,123.5C 248.833,123.5 248.167,123.5 247.5,123.5C 246.653,122.034 245.32,121.2 243.5,121C 244.5,118.909 243.833,117.243 241.5,116C 243.032,115.3 244.032,114.134 244.5,112.5C 244.126,111.25 244.126,110.25 244.5,109.5C 244.338,107.473 244.505,105.473 245,103.5C 245.893,104.711 246.726,104.711 247.5,103.5C 246.509,102.335 245.509,101.168 244.5,100C 246.132,97.1411 247.798,96.9744 249.5,99.5 Z"/></g>
<g><path style="opacity:0.004" fill="#fefffe" d="M -0.5,113.5 C 0.833333,114.167 0.833333,114.167 -0.5,113.5 Z"/></g>
<g><path style="opacity:0.004" fill="#fefffe" d="M -0.5,115.5 C 0.166667,115.5 0.833333,115.5 1.5,115.5C 1.5,115.833 1.5,116.167 1.5,116.5C 0.661754,116.842 0.32842,117.508 0.5,118.5C 0.166667,118.5 -0.166667,118.5 -0.5,118.5C -0.5,117.5 -0.5,116.5 -0.5,115.5 Z"/></g>
<g><path style="opacity:0.004" fill="#fefffe" d="M 249.5,115.5 C 250.167,115.833 250.833,116.167 251.5,116.5C 251.5,117.5 251.5,118.5 251.5,119.5C 250.833,119.5 250.167,119.5 249.5,119.5C 248.833,119.5 248.5,119.167 248.5,118.5C 248.833,117.833 249.167,117.167 249.5,116.5C 249.5,116.167 249.5,115.833 249.5,115.5 Z"/></g>
<g><path style="opacity:0.016" fill="#515151" d="M 247.5,123.5 C 247.833,124.5 248.5,125.167 249.5,125.5C 249.5,126.167 249.5,126.833 249.5,127.5C 248.167,129.167 248.167,130.833 249.5,132.5C 249.557,133.609 249.89,134.609 250.5,135.5C 249.326,137.224 248.326,138.891 247.5,140.5C 246.933,138.97 246.267,137.47 245.5,136C 246.167,135.667 246.833,135.333 247.5,135C 245.996,133.663 244.996,131.996 244.5,130C 244.986,127.973 244.986,125.807 244.5,123.5C 245.5,123.5 246.5,123.5 247.5,123.5 Z"/></g>
<g><path style="opacity:0.004" fill="#fefffe" d="M 247.5,123.5 C 248.167,123.5 248.833,123.5 249.5,123.5C 249.5,124.167 249.833,124.5 250.5,124.5C 250.5,125.167 250.167,125.5 249.5,125.5C 248.5,125.167 247.833,124.5 247.5,123.5 Z"/></g>
<g><path style="opacity:0.004" fill="#fefffe" d="M 251.5,123.5 C 251.5,123.833 251.5,124.167 251.5,124.5C 250.83,124.019 250.83,123.685 251.5,123.5 Z"/></g>
<g><path style="opacity:0.004" fill="#dcdcdc" d="M -0.5,122.5 C -0.5,122.167 -0.5,121.833 -0.5,121.5C 0.5,121.5 1.5,121.5 2.5,121.5C 3.17772,124.171 3.17772,127.504 2.5,131.5C 1.83333,132.167 1.16667,132.833 0.5,133.5C 0.67158,132.508 0.338246,131.842 -0.5,131.5C -0.5,131.167 -0.5,130.833 -0.5,130.5C 0.833333,130.167 0.833333,129.833 -0.5,129.5C -0.5,128.167 -0.5,126.833 -0.5,125.5C 0.833333,125.167 0.833333,124.833 -0.5,124.5C -0.5,124.167 -0.5,123.833 -0.5,123.5C 0.833333,123.167 0.833333,122.833 -0.5,122.5 Z"/></g>
<g><path style="opacity:0.004" fill="#fefffe" d="M 251.5,126.5 C 251.5,127.167 251.5,127.833 251.5,128.5C 250.167,128.833 250.167,129.167 251.5,129.5C 251.5,131.5 251.5,133.5 251.5,135.5C 251.167,135.5 250.833,135.5 250.5,135.5C 249.89,134.609 249.557,133.609 249.5,132.5C 248.167,130.833 248.167,129.167 249.5,127.5C 250.167,127.167 250.833,126.833 251.5,126.5 Z"/></g>
<g><path style="opacity:0.004" fill="#000000" d="M 2.5,131.5 C 2.37133,133.216 2.038,134.883 1.5,136.5C 1.16667,136.5 0.833333,136.5 0.5,136.5C 0.5,135.5 0.5,134.5 0.5,133.5C 1.16667,132.833 1.83333,132.167 2.5,131.5 Z"/></g>
<g><path style="opacity:0.016" fill="#505050" d="M 2.5,131.5 C 3.28913,131.783 3.9558,132.283 4.5,133C 3.48288,134.049 3.31621,135.216 4,136.5C 4.33333,136.167 4.66667,135.833 5,135.5C 5.5,136.5 6,137.5 6.5,138.5C 5.24153,140.648 5.24153,142.815 6.5,145C 6.00565,147.505 4.67232,149.339 2.5,150.5C 2.5,149.833 2.5,149.167 2.5,148.5C 2.73731,147.209 2.40397,146.209 1.5,145.5C 1.5,144.833 1.16667,144.5 0.5,144.5C 1.2192,142.683 2.2192,142.016 3.5,142.5C 2.87277,141.583 2.53944,140.583 2.5,139.5C 2.5,138.833 2.16667,138.5 1.5,138.5C 1.5,137.833 1.5,137.167 1.5,136.5C 2.038,134.883 2.37133,133.216 2.5,131.5 Z"/></g>
<g><path style="opacity:0.004" fill="#fafafa" d="M 250.5,135.5 C 250.5,136.167 250.833,136.5 251.5,136.5C 251.5,136.833 251.5,137.167 251.5,137.5C 250.167,138.5 250.167,139.5 251.5,140.5C 251.5,142.167 251.5,143.833 251.5,145.5C 250.167,146.167 250.167,146.833 251.5,147.5C 251.5,147.833 251.5,148.167 251.5,148.5C 250.167,148.833 250.167,149.167 251.5,149.5C 251.5,150.167 251.5,150.833 251.5,151.5C 250.167,151.833 250.167,152.167 251.5,152.5C 251.5,153.167 251.5,153.833 251.5,154.5C 250.167,154.833 250.167,155.167 251.5,155.5C 251.5,159.167 251.5,162.833 251.5,166.5C 251.167,166.5 250.833,166.5 250.5,166.5C 250.5,165.833 250.167,165.5 249.5,165.5C 249.5,165.167 249.5,164.833 249.5,164.5C 250.833,163.833 250.833,163.167 249.5,162.5C 249.5,162.167 249.5,161.833 249.5,161.5C 250.742,159.654 250.409,159.321 248.5,160.5C 248.328,159.508 248.662,158.842 249.5,158.5C 250.833,158.167 250.833,157.833 249.5,157.5C 249.5,157.167 249.5,156.833 249.5,156.5C 249.5,156.167 249.5,155.833 249.5,155.5C 248.781,153.236 248.448,150.903 248.5,148.5C 249.833,148.167 249.833,147.833 248.5,147.5C 248.217,146.784 247.884,145.951 247.5,145C 248.066,144.005 248.733,143.172 249.5,142.5C 250.833,142.167 250.833,141.833 249.5,141.5C 248.833,141.5 248.167,141.5 247.5,141.5C 247.5,141.167 247.5,140.833 247.5,140.5C 248.326,138.891 249.326,137.224 250.5,135.5 Z"/></g>
<g><path style="opacity:0.004" fill="#f0f0f0" d="M -0.5,133.5 C -0.166667,133.5 0.166667,133.5 0.5,133.5C 0.5,134.5 0.5,135.5 0.5,136.5C 0.32842,137.492 0.661754,138.158 1.5,138.5C 2.16667,138.5 2.5,138.833 2.5,139.5C 2.53944,140.583 2.87277,141.583 3.5,142.5C 2.2192,142.016 1.2192,142.683 0.5,144.5C 0.5,145.167 0.166667,145.5 -0.5,145.5C -0.5,143.833 -0.5,142.167 -0.5,140.5C 0.833333,140.167 0.833333,139.833 -0.5,139.5C -0.5,137.5 -0.5,135.5 -0.5,133.5 Z"/></g>
<g><path style="opacity:0.004" fill="#e2e2e2" d="M 1.5,145.5 C 2.40397,146.209 2.73731,147.209 2.5,148.5C 1.60895,149.11 0.608953,149.443 -0.5,149.5C -0.5,148.5 -0.5,147.5 -0.5,146.5C 0.491622,146.672 1.15829,146.338 1.5,145.5 Z"/></g>
<g><path style="opacity:0.004" fill="#fefffe" d="M -0.5,150.5 C 0.166667,151.5 0.833333,152.5 1.5,153.5C 1.83333,153.5 2.16667,153.5 2.5,153.5C 2.5,155.167 2.5,156.833 2.5,158.5C 2.16667,158.5 1.83333,158.5 1.5,158.5C 1.01131,157.005 0.344644,155.671 -0.5,154.5C -0.5,153.167 -0.5,151.833 -0.5,150.5 Z"/></g>
<g><path style="opacity:0.016" fill="#3d3d3d" d="M 247.5,141.5 C 248.167,141.5 248.833,141.5 249.5,141.5C 249.5,141.833 249.5,142.167 249.5,142.5C 248.733,143.172 248.066,144.005 247.5,145C 247.884,145.951 248.217,146.784 248.5,147.5C 248.5,147.833 248.5,148.167 248.5,148.5C 248.448,150.903 248.781,153.236 249.5,155.5C 248.167,155.833 248.167,156.167 249.5,156.5C 249.5,156.833 249.5,157.167 249.5,157.5C 249.5,157.833 249.5,158.167 249.5,158.5C 248.662,158.842 248.328,159.508 248.5,160.5C 248.5,161.167 248.833,161.5 249.5,161.5C 249.5,161.833 249.5,162.167 249.5,162.5C 249.167,162.5 248.833,162.5 248.5,162.5C 246.385,159.785 245.052,156.951 244.5,154C 245.68,150.832 245.346,147.666 243.5,144.5C 245.15,144.599 246.483,143.599 247.5,141.5 Z"/></g>
<g><path style="opacity:0.004" fill="#fefffe" d="M 1.5,158.5 C 1.5,159.167 1.83333,159.5 2.5,159.5C 2.61071,160.117 2.94404,160.617 3.5,161C 2.24402,161.417 1.57735,162.25 1.5,163.5C 1.5,163.833 1.5,164.167 1.5,164.5C 0.833333,164.5 0.166667,164.5 -0.5,164.5C -0.5,163.833 -0.5,163.167 -0.5,162.5C 0.833333,161.833 0.833333,161.167 -0.5,160.5C -0.5,160.167 -0.5,159.833 -0.5,159.5C 0.166667,159.167 0.833333,158.833 1.5,158.5 Z"/></g>
<g><path style="opacity:0.02" fill="#414141" d="M 3.5,165.5 C 3.67158,164.508 3.33825,163.842 2.5,163.5C 2.16667,163.5 1.83333,163.5 1.5,163.5C 1.57735,162.25 2.24402,161.417 3.5,161C 2.94404,160.617 2.61071,160.117 2.5,159.5C 2.5,159.167 2.5,158.833 2.5,158.5C 2.5,156.833 2.5,155.167 2.5,153.5C 3.73834,153.19 3.73834,152.69 2.5,152C 6.01132,151.88 6.34465,153.214 3.5,156C 4.47058,157.204 5.47058,157.704 6.5,157.5C 6.41336,159.963 6.41336,162.463 6.5,165C 5.55198,165.483 4.55198,165.649 3.5,165.5 Z"/></g>
<g><path style="opacity:0.004" fill="#fefffe" d="M 2.5,163.5 C 3.33825,163.842 3.67158,164.508 3.5,165.5C 2.83333,165.5 2.5,165.833 2.5,166.5C 2.16667,166.5 1.83333,166.5 1.5,166.5C 1.5,165.833 1.5,165.167 1.5,164.5C 2.16667,164.5 2.5,164.167 2.5,163.5 Z"/></g>
<g><path style="opacity:0.112" fill="#0f0f0f" d="M 19.5,20.5 C 18.0647,23.7113 16.8981,27.0447 16,30.5C 15.3333,82.8333 15.3333,135.167 16,187.5C 16.662,189.813 17.162,192.146 17.5,194.5C 17.7569,198.613 18.4236,202.947 19.5,207.5C 19.2907,208.086 18.9574,208.586 18.5,209C 20.0614,209.941 21.3947,211.108 22.5,212.5C 22.1797,214.578 21.1797,216.744 19.5,219C 23.1667,220 23.5,221.667 20.5,224C 22.0004,227.011 22.8337,226.511 23,222.5C 24.756,223.421 24.9227,224.588 23.5,226C 23.9031,227.473 24.5697,228.806 25.5,230C 24.4829,231.049 24.3162,232.216 25,233.5C 27.1299,233.587 29.2966,233.587 31.5,233.5C 33.3492,234.593 35.0158,235.926 36.5,237.5C 39.0545,236.697 40.8878,237.697 42,240.5C 45.0212,236.394 46.1878,236.727 45.5,241.5C 46.9492,242.172 48.2825,242.839 49.5,243.5C 47.9826,243.511 46.8159,244.177 46,245.5C 44.1787,242.742 41.8454,241.742 39,242.5C 37.3363,240.245 35.503,238.911 33.5,238.5C 31.2997,239.325 30.9663,240.658 32.5,242.5C 31.3052,242.322 30.1385,241.989 29,241.5C 27.9701,241.836 27.4701,242.503 27.5,243.5C 27.1667,243.5 26.8333,243.5 26.5,243.5C 26.5,242.833 26.5,242.167 26.5,241.5C 26.3691,240.624 26.7025,239.957 27.5,239.5C 28.451,240.326 29.451,240.492 30.5,240C 24.3216,237.653 19.9883,233.487 17.5,227.5C 17.5774,226.25 18.244,225.417 19.5,225C 18.1667,224.333 17.1667,223.333 16.5,222C 16.8333,221 17.1667,220 17.5,219C 15.4794,218.487 13.9794,217.32 13,215.5C 12.3828,216.449 12.5494,217.282 13.5,218C 12.5,218.667 11.5,218.667 10.5,218C 10.8333,217.667 11.1667,217.333 11.5,217C 10.5697,215.806 9.90307,214.473 9.5,213C 10.6953,211.467 10.6953,209.967 9.5,208.5C 9.97665,207.522 10.6433,206.689 11.5,206C 8.25769,205.717 7.92435,204.883 10.5,203.5C 7.59024,200.879 6.09024,197.879 6,194.5C 5.06564,195.858 4.2323,197.192 3.5,198.5C 3.07984,196.326 3.07984,194.326 3.5,192.5C 3.02335,191.522 2.35668,190.689 1.5,190C 2.09442,189.536 2.76109,189.369 3.5,189.5C 4.70256,192.251 6.36923,192.751 8.5,191C 8.03848,189.278 7.87182,187.445 8,185.5C 6.25049,183.743 5.08383,181.743 4.5,179.5C 5.35915,176.9 5.69248,174.4 5.5,172C 4.9558,171.283 4.28913,170.783 3.5,170.5C 3.5,170.167 3.5,169.833 3.5,169.5C 5.04814,169.179 5.71481,168.179 5.5,166.5C 4.5,166.5 3.5,166.5 2.5,166.5C 2.5,165.833 2.83333,165.5 3.5,165.5C 4.55198,165.649 5.55198,165.483 6.5,165C 6.41336,162.463 6.41336,159.963 6.5,157.5C 5.47058,157.704 4.47058,157.204 3.5,156C 6.34465,153.214 6.01132,151.88 2.5,152C 3.73834,152.69 3.73834,153.19 2.5,153.5C 2.16667,153.5 1.83333,153.5 1.5,153.5C 1.26269,152.209 1.59603,151.209 2.5,150.5C 4.67232,149.339 6.00565,147.505 6.5,145C 5.24153,142.815 5.24153,140.648 6.5,138.5C 6,137.5 5.5,136.5 5,135.5C 4.66667,135.833 4.33333,136.167 4,136.5C 3.31621,135.216 3.48288,134.049 4.5,133C 3.9558,132.283 3.28913,131.783 2.5,131.5C 3.17772,127.504 3.17772,124.171 2.5,121.5C 1.83333,120.5 1.16667,119.5 0.5,118.5C 1.33825,118.158 1.67158,117.492 1.5,116.5C 1.5,116.167 1.5,115.833 1.5,115.5C 1.5,115.167 1.5,114.833 1.5,114.5C 2.39695,115.598 3.23029,115.598 4,114.5C 4.66667,111.5 4.66667,108.5 4,105.5C 3.75987,107.852 2.92654,109.852 1.5,111.5C 1.59121,109.302 0.924541,108.969 -0.5,110.5C -0.5,109.833 -0.5,109.167 -0.5,108.5C 1.14363,108.19 2.14363,107.19 2.5,105.5C 2.5,104.833 2.83333,104.5 3.5,104.5C 4.82207,104.67 5.98873,104.337 7,103.5C 7.42258,104.956 8.25591,105.456 9.5,105C 8.83333,104 8.16667,103 7.5,102C 8.50117,99.4926 8.50117,97.1593 7.5,95C 4.51784,92.8089 4.18451,90.4755 6.5,88C 6.0741,83.8527 5.0741,80.0193 3.5,76.5C 2.83333,76.1667 2.16667,75.8333 1.5,75.5C 2.68566,74.0387 2.68566,72.7054 1.5,71.5C 1.5,71.1667 1.5,70.8333 1.5,70.5C 1.83333,70.5 2.16667,70.5 2.5,70.5C 3.4959,70.4142 4.32924,70.7476 5,71.5C 7.0647,68.9546 6.89803,66.6213 4.5,64.5C 6.27864,62.8071 6.77864,60.8071 6,58.5C 5.34569,59.6956 4.84569,59.6956 4.5,58.5C 5.16667,57.8333 5.83333,57.1667 6.5,56.5C 5.6102,55.2888 5.6102,53.9555 6.5,52.5C 6.40472,50.1309 5.40472,48.4642 3.5,47.5C 3.5,46.5 3.5,45.5 3.5,44.5C 4.22158,44.9175 4.72158,45.5842 5,46.5C 7.37104,44.4673 7.87104,42.1339 6.5,39.5C 8.47049,37.7149 10.4705,36.5482 12.5,36C 12.1667,35.6667 11.8333,35.3333 11.5,35C 12.1905,33.9326 12.6905,32.7659 13,31.5C 13.6543,32.6956 14.1543,32.6956 14.5,31.5C 13.91,30.2011 12.91,29.3678 11.5,29C 13.7823,27.9158 14.1157,26.4158 12.5,24.5C 12.5,24.1667 12.5,23.8333 12.5,23.5C 14.2232,24.0718 15.7232,24.0718 17,23.5C 17.2355,21.8807 18.0689,20.8807 19.5,20.5 Z"/></g>
<g><path style="opacity:0.004" fill="#6c6c6c" d="M -0.5,165.5 C 0.166667,165.833 0.833333,166.167 1.5,166.5C 1.83333,166.5 2.16667,166.5 2.5,166.5C 3.5,166.5 4.5,166.5 5.5,166.5C 5.71481,168.179 5.04814,169.179 3.5,169.5C 2.83333,169.5 2.5,169.167 2.5,168.5C 1.83333,167.167 1.16667,167.167 0.5,168.5C 0.166667,168.5 -0.166667,168.5 -0.5,168.5C -0.5,167.5 -0.5,166.5 -0.5,165.5 Z"/></g>
<g><path style="opacity:0.004" fill="#dfdfdf" d="M 0.5,168.5 C 1.16667,168.5 1.83333,168.5 2.5,168.5C 2.5,169.167 2.83333,169.5 3.5,169.5C 3.5,169.833 3.5,170.167 3.5,170.5C 2.16667,170.5 1.5,171.167 1.5,172.5C 0.833333,172.167 0.166667,171.833 -0.5,171.5C -0.5,171.167 -0.5,170.833 -0.5,170.5C 0.338246,170.158 0.67158,169.492 0.5,168.5 Z"/></g>
<g><path style="opacity:0.004" fill="#e1e1e1" d="M 249.5,166.5 C 249.833,166.5 250.167,166.5 250.5,166.5C 250.328,167.492 250.662,168.158 251.5,168.5C 251.5,168.833 251.5,169.167 251.5,169.5C 248.833,169.833 248.833,170.167 251.5,170.5C 251.5,171.833 251.5,173.167 251.5,174.5C 251.167,174.5 250.833,174.5 250.5,174.5C 250.5,174.167 250.5,173.833 250.5,173.5C 250.5,172.167 249.833,171.5 248.5,171.5C 249.108,169.316 248.441,167.316 246.5,165.5C 246.369,164.761 246.536,164.094 247,163.5C 247.852,164.571 248.685,165.571 249.5,166.5 Z"/></g>
<g><path style="opacity:0.008" fill="#6d6d6d" d="M 3.5,170.5 C 4.28913,170.783 4.9558,171.283 5.5,172C 5.69248,174.4 5.35915,176.9 4.5,179.5C 3.83333,178.833 3.16667,178.167 2.5,177.5C 1.83333,177.5 1.16667,177.5 0.5,177.5C 0.5,176.833 0.166667,176.5 -0.5,176.5C -0.5,175.833 -0.5,175.167 -0.5,174.5C 0.5,174.167 1.16667,173.5 1.5,172.5C 1.5,171.167 2.16667,170.5 3.5,170.5 Z"/></g>
<g><path style="opacity:0.035" fill="#292929" d="M 246.5,165.5 C 248.441,167.316 249.108,169.316 248.5,171.5C 248.833,172.5 249.5,173.167 250.5,173.5C 250.5,173.833 250.5,174.167 250.5,174.5C 250.5,174.833 250.5,175.167 250.5,175.5C 249.508,175.328 248.842,175.662 248.5,176.5C 248.461,177.583 248.127,178.583 247.5,179.5C 247.957,180.298 248.624,180.631 249.5,180.5C 249.842,181.338 250.508,181.672 251.5,181.5C 251.5,181.833 251.5,182.167 251.5,182.5C 250.833,182.5 250.167,182.5 249.5,182.5C 248.833,182.5 248.167,182.5 247.5,182.5C 246.244,182.904 245.077,183.571 244,184.5C 243.303,182.058 242.137,179.392 240.5,176.5C 241.025,175.808 241.692,175.308 242.5,175C 242.167,174.667 241.833,174.333 241.5,174C 242.173,171.141 243.007,168.308 244,165.5C 244.77,166.598 245.603,166.598 246.5,165.5 Z"/></g>
<g><path style="opacity:0.004" fill="#fefffe" d="M 250.5,175.5 C 250.833,175.5 251.167,175.5 251.5,175.5C 251.5,175.833 251.5,176.167 251.5,176.5C 251.167,176.167 250.833,175.833 250.5,175.5 Z"/></g>
<g><path style="opacity:0.004" fill="#fefffe" d="M 248.5,176.5 C 249.391,177.11 250.391,177.443 251.5,177.5C 251.5,177.833 251.5,178.167 251.5,178.5C 250.167,178.833 250.167,179.167 251.5,179.5C 251.5,179.833 251.5,180.167 251.5,180.5C 250.833,180.5 250.167,180.5 249.5,180.5C 248.624,180.631 247.957,180.298 247.5,179.5C 248.127,178.583 248.461,177.583 248.5,176.5 Z"/></g>
<g><path style="opacity:0.004" fill="#fefffe" d="M -0.5,177.5 C -0.166667,177.5 0.166667,177.5 0.5,177.5C 0.31468,178.17 -0.0186536,178.17 -0.5,177.5 Z"/></g>
<g><path style="opacity:0.004" fill="#c5c5c5" d="M 247.5,182.5 C 248.167,182.5 248.833,182.5 249.5,182.5C 249.409,184.698 250.075,185.031 251.5,183.5C 251.5,184.833 251.5,186.167 251.5,187.5C 250.167,187.833 250.167,188.167 251.5,188.5C 251.5,189.167 251.5,189.833 251.5,190.5C 250.167,191.167 250.167,191.833 251.5,192.5C 251.5,192.833 251.5,193.167 251.5,193.5C 250.833,193.5 250.167,193.5 249.5,193.5C 249.607,191.621 249.107,191.288 248,192.5C 247.838,190.546 247.671,188.879 247.5,187.5C 247.834,186.002 247.834,184.335 247.5,182.5 Z"/></g>
<g><path style="opacity:0.016" fill="#323232" d="M 2.5,177.5 C 3.16667,178.167 3.83333,178.833 4.5,179.5C 5.08383,181.743 6.25049,183.743 8,185.5C 7.87182,187.445 8.03848,189.278 8.5,191C 6.36923,192.751 4.70256,192.251 3.5,189.5C 2.83333,188.5 2.16667,187.5 1.5,186.5C 2.83333,186.167 2.83333,185.833 1.5,185.5C 0.594638,184.036 0.594638,182.702 1.5,181.5C 1.5,181.167 1.5,180.833 1.5,180.5C 1.5,180.167 1.5,179.833 1.5,179.5C 1.83333,178.833 2.16667,178.167 2.5,177.5 Z"/></g>
<g><path style="opacity:0.004" fill="#dadada" d="M -0.5,179.5 C 0.166667,179.5 0.833333,179.5 1.5,179.5C 1.5,179.833 1.5,180.167 1.5,180.5C 0.166667,180.833 0.166667,181.167 1.5,181.5C 0.594638,182.702 0.594638,184.036 1.5,185.5C 1.5,185.833 1.5,186.167 1.5,186.5C 2.16667,187.5 2.83333,188.5 3.5,189.5C 2.76109,189.369 2.09442,189.536 1.5,190C 2.35668,190.689 3.02335,191.522 3.5,192.5C 3.07984,194.326 3.07984,196.326 3.5,198.5C 3.73731,199.791 3.40397,200.791 2.5,201.5C 2.19593,199.204 1.19593,198.871 -0.5,200.5C -0.5,199.833 -0.5,199.167 -0.5,198.5C 1.85072,197.084 1.85072,195.417 -0.5,193.5C -0.5,192.833 -0.5,192.167 -0.5,191.5C 0.833333,190.833 0.833333,190.167 -0.5,189.5C -0.5,189.167 -0.5,188.833 -0.5,188.5C 0.833333,188.167 0.833333,187.833 -0.5,187.5C -0.5,184.833 -0.5,182.167 -0.5,179.5 Z"/></g>
<g><path style="opacity:0.008" fill="#afafaf" d="M 249.5,194.5 C 250.167,194.5 250.833,194.5 251.5,194.5C 251.5,195.5 251.5,196.5 251.5,197.5C 251.167,197.5 250.833,197.5 250.5,197.5C 250.5,197.167 250.5,196.833 250.5,196.5C 250.158,195.662 249.492,195.328 248.5,195.5C 247.167,197.167 247.167,198.833 248.5,200.5C 249.167,200.5 249.833,200.5 250.5,200.5C 250.737,201.791 250.404,202.791 249.5,203.5C 249.167,202.167 248.833,202.167 248.5,203.5C 248.167,203.5 247.833,203.5 247.5,203.5C 246.489,201.245 245.822,198.745 245.5,196C 246.317,193.628 247.65,193.128 249.5,194.5 Z"/></g>
<g><path style="opacity:0.207" fill="#070707" d="M 244.5,109.5 C 244.126,110.25 244.126,111.25 244.5,112.5C 244.032,114.134 243.032,115.3 241.5,116C 243.833,117.243 244.5,118.909 243.5,121C 245.32,121.2 246.653,122.034 247.5,123.5C 246.5,123.5 245.5,123.5 244.5,123.5C 244.986,125.807 244.986,127.973 244.5,130C 244.996,131.996 245.996,133.663 247.5,135C 246.833,135.333 246.167,135.667 245.5,136C 246.267,137.47 246.933,138.97 247.5,140.5C 247.5,140.833 247.5,141.167 247.5,141.5C 246.483,143.599 245.15,144.599 243.5,144.5C 245.346,147.666 245.68,150.832 244.5,154C 245.052,156.951 246.385,159.785 248.5,162.5C 248.833,163.167 249.167,163.833 249.5,164.5C 249.5,164.833 249.5,165.167 249.5,165.5C 249.5,165.833 249.5,166.167 249.5,166.5C 248.685,165.571 247.852,164.571 247,163.5C 246.536,164.094 246.369,164.761 246.5,165.5C 245.603,166.598 244.77,166.598 244,165.5C 243.007,168.308 242.173,171.141 241.5,174C 241.833,174.333 242.167,174.667 242.5,175C 241.692,175.308 241.025,175.808 240.5,176.5C 242.137,179.392 243.303,182.058 244,184.5C 245.077,183.571 246.244,182.904 247.5,182.5C 247.834,184.335 247.834,186.002 247.5,187.5C 245.983,187.489 244.816,186.823 244,185.5C 243.833,185.833 243.667,186.167 243.5,186.5C 243.833,188.5 244.167,190.5 244.5,192.5C 243.358,194.378 242.358,196.212 241.5,198C 241.42,200.28 242.087,202.613 243.5,205C 242.364,206.53 241.364,207.863 240.5,209C 241.235,212.704 240.235,216.037 237.5,219C 238.094,219.464 238.761,219.631 239.5,219.5C 239.077,220.265 238.743,221.098 238.5,222C 239.509,222.355 240.176,223.188 240.5,224.5C 240.167,224.5 239.833,224.5 239.5,224.5C 238.417,224.461 237.417,224.127 236.5,223.5C 235.316,225.467 235.649,227.134 237.5,228.5C 236.508,228.328 235.842,228.662 235.5,229.5C 234.542,229.953 233.708,230.619 233,231.5C 232.577,230.044 231.744,229.544 230.5,230C 231.673,233.11 231.173,233.277 229,230.5C 228.316,231.784 228.483,232.951 229.5,234C 229,234.5 228.5,235 228,235.5C 227.581,234.328 226.915,233.328 226,232.5C 224.413,235.756 221.913,237.923 218.5,239C 219.416,239.278 220.082,239.778 220.5,240.5C 218.914,241.413 217.414,241.413 216,240.5C 215.71,242.044 215.044,243.377 214,244.5C 213.667,244.167 213.333,243.833 213,243.5C 212.015,244.814 210.848,245.814 209.5,246.5C 207.336,246.721 205.67,247.721 204.5,249.5C 204.672,248.508 204.338,247.842 203.5,247.5C 201.654,246.258 201.321,246.591 202.5,248.5C 202.167,248.5 201.833,248.5 201.5,248.5C 199.666,247.506 197.999,247.506 196.5,248.5C 196.167,248.5 195.833,248.5 195.5,248.5C 195.167,247.833 194.833,247.167 194.5,246.5C 196.379,246.607 196.712,246.107 195.5,245C 193.236,245.698 191.403,245.198 190,243.5C 187.624,245.476 185.124,246.309 182.5,246C 181.402,246.77 181.402,247.603 182.5,248.5C 182.5,248.833 182.5,249.167 182.5,249.5C 182.167,249.5 181.833,249.5 181.5,249.5C 180.508,249.672 179.842,249.338 179.5,248.5C 180.706,247.12 180.373,245.953 178.5,245C 179.167,244.667 179.833,244.333 180.5,244C 179.354,243.355 178.354,242.522 177.5,241.5C 174.223,242.254 170.89,242.754 167.5,243C 167.833,243.333 168.167,243.667 168.5,244C 167.244,244.417 166.577,245.25 166.5,246.5C 164.533,246.739 162.699,246.406 161,245.5C 160.667,246.167 160.333,246.833 160,247.5C 159.722,246.584 159.222,245.918 158.5,245.5C 156.81,244.897 155.31,243.897 154,242.5C 151.232,245.088 149.232,244.755 148,241.5C 147.308,242.025 146.808,242.692 146.5,243.5C 148.899,247.176 148.233,247.343 144.5,244C 145.258,242.636 144.758,241.469 143,240.5C 142.667,241.167 142.333,241.833 142,242.5C 138.872,242.245 135.705,241.911 132.5,241.5C 128.888,244.347 125.721,244.014 123,240.5C 123.43,242.127 123.596,243.627 123.5,245C 123,245.5 122.5,246 122,246.5C 119.943,245.315 117.943,244.315 116,243.5C 116.068,245.342 115.901,247.009 115.5,248.5C 115.167,248.5 114.833,248.5 114.5,248.5C 114.167,248.5 113.833,248.5 113.5,248.5C 112.391,248.443 111.391,248.11 110.5,247.5C 109.761,247.631 109.094,247.464 108.5,247C 112.223,246.566 112.39,245.732 109,244.5C 107.251,244.748 106.418,245.748 106.5,247.5C 104.332,247.665 101.999,247.332 99.5,246.5C 96.5754,244.04 93.5754,244.206 90.5,247C 91.056,247.383 91.3893,247.883 91.5,248.5C 91.1667,248.5 90.8333,248.5 90.5,248.5C 90.1667,248.5 89.8333,248.5 89.5,248.5C 89.4588,246.255 88.6255,245.588 87,246.5C 83.9152,244.442 81.7486,245.442 80.5,249.5C 80.1667,249.5 79.8333,249.5 79.5,249.5C 79.6309,248.624 79.2975,247.957 78.5,247.5C 77.2638,248.246 75.9305,248.579 74.5,248.5C 73.8658,247.053 72.6991,246.387 71,246.5C 69.6244,246.684 68.7911,247.351 68.5,248.5C 66.8306,247.11 65.1639,246.777 63.5,247.5C 62.8855,245.277 61.5522,243.611 59.5,242.5C 57.259,242.498 54.9257,242.832 52.5,243.5C 53.7914,244.527 53.7914,245.527 52.5,246.5C 51.5084,246.672 50.8417,246.338 50.5,245.5C 50.1667,244.833 49.8333,244.167 49.5,243.5C 48.2825,242.839 46.9492,242.172 45.5,241.5C 46.1878,236.727 45.0212,236.394 42,240.5C 40.8878,237.697 39.0545,236.697 36.5,237.5C 35.0158,235.926 33.3492,234.593 31.5,233.5C 29.2966,233.587 27.1299,233.587 25,233.5C 24.3162,232.216 24.4829,231.049 25.5,230C 24.5697,228.806 23.9031,227.473 23.5,226C 24.9227,224.588 24.756,223.421 23,222.5C 22.8337,226.511 22.0004,227.011 20.5,224C 23.5,221.667 23.1667,220 19.5,219C 21.1797,216.744 22.1797,214.578 22.5,212.5C 21.3947,211.108 20.0614,209.941 18.5,209C 18.9574,208.586 19.2907,208.086 19.5,207.5C 18.4236,202.947 17.7569,198.613 17.5,194.5C 23.7509,207.25 33.7509,215.417 47.5,219C 99.5,219.667 151.5,219.667 203.5,219C 220,214.5 230.5,204 235,187.5C 235.5,143.168 235.667,98.8346 235.5,54.5C 236.496,54.5858 237.329,54.2524 238,53.5C 238,54.8333 238,56.1667 238,57.5C 238.333,57.8333 238.667,58.1667 239,58.5C 239.451,56.0712 240.285,55.9045 241.5,58C 236.963,61.8533 236.63,65.3533 240.5,68.5C 237.961,71.5454 238.294,74.3787 241.5,77C 240.833,77.3333 240.167,77.6667 239.5,78C 242.834,80.6508 243.167,83.8175 240.5,87.5C 241.891,87.1086 242.891,87.9419 243.5,90C 240.833,90.6667 240.833,91.3333 243.5,92C 242.572,92.3879 241.905,93.0546 241.5,94C 242.573,95.4162 242.573,96.7496 241.5,98C 242.167,98.3333 242.833,98.6667 243.5,99C 242.386,100.57 241.053,101.903 239.5,103C 240.687,104.019 241.687,105.186 242.5,106.5C 241.556,108.137 242.223,109.137 244.5,109.5 Z"/></g>
<g><path style="opacity:0.005" fill="#202020" d="M 248.5,195.5 C 248.842,196.338 249.508,196.672 250.5,196.5C 250.5,196.833 250.5,197.167 250.5,197.5C 248.952,197.821 248.285,198.821 248.5,200.5C 247.167,198.833 247.167,197.167 248.5,195.5 Z"/></g>
<g><path style="opacity:0.004" fill="#000000" d="M 250.5,199.5 C 249.833,198.167 249.833,198.167 250.5,199.5 Z"/></g>
<g><path style="opacity:0.004" fill="#fefffe" d="M 250.5,199.5 C 250.833,199.5 251.167,199.5 251.5,199.5C 251.5,199.833 251.5,200.167 251.5,200.5C 251.167,200.167 250.833,199.833 250.5,199.5 Z"/></g>
<g><path style="opacity:0.004" fill="#fefffe" d="M -0.5,201.5 C 0.833333,202.167 0.833333,202.833 -0.5,203.5C -0.5,202.833 -0.5,202.167 -0.5,201.5 Z"/></g>
<g><path style="opacity:0.004" fill="#cbcbcb" d="M 2.5,201.5 C 2.9528,202.458 3.61947,203.292 4.5,204C 3.74756,204.671 3.41423,205.504 3.5,206.5C 2.83333,206.5 2.5,206.833 2.5,207.5C 2.16667,207.5 1.83333,207.5 1.5,207.5C 1.5,206.833 1.5,206.167 1.5,205.5C 1.83333,204.167 2.16667,202.833 2.5,201.5 Z"/></g>
<g><path style="opacity:0.004" fill="#3b3b3b" d="M 248.5,203.5 C 248.833,203.5 249.167,203.5 249.5,203.5C 250.463,204.363 250.463,205.03 249.5,205.5C 248.702,205.043 248.369,204.376 248.5,203.5 Z"/></g>
<g><path style="opacity:0.004" fill="#fefffe" d="M -0.5,204.5 C 0.491622,204.328 1.15829,204.662 1.5,205.5C 1.5,206.167 1.5,206.833 1.5,207.5C 0.833333,207.5 0.5,207.833 0.5,208.5C 0.166667,208.5 -0.166667,208.5 -0.5,208.5C -0.5,207.167 -0.5,205.833 -0.5,204.5 Z"/></g>
<g><path style="opacity:0.004" fill="#ebebeb" d="M 247.5,205.5 C 248.671,206.345 250.005,207.011 251.5,207.5C 251.5,208.167 251.5,208.833 251.5,209.5C 250.508,209.328 249.842,209.662 249.5,210.5C 248.508,210.328 247.842,210.662 247.5,211.5C 246.167,212.5 246.167,213.5 247.5,214.5C 247.5,215.5 247.5,216.5 247.5,217.5C 247.167,217.5 246.833,217.5 246.5,217.5C 246.672,216.508 246.338,215.842 245.5,215.5C 245.062,215.565 244.728,215.399 244.5,215C 244.998,211.58 245.998,208.413 247.5,205.5 Z"/></g>
<g><path style="opacity:0.004" fill="#cbcbcb" d="M 2.5,208.5 C 2.5,208.167 2.5,207.833 2.5,207.5C 2.83333,207.5 3.16667,207.5 3.5,207.5C 5.44235,209.685 6.44235,212.019 6.5,214.5C 6.15431,215.696 5.65431,215.696 5,214.5C 4.53566,215.094 4.36899,215.761 4.5,216.5C 3.77842,216.082 3.27842,215.416 3,214.5C 2.66667,215.167 2.33333,215.833 2,216.5C 1.62325,215.058 0.789915,214.058 -0.5,213.5C -0.5,212.833 -0.5,212.167 -0.5,211.5C 0.491622,211.672 1.15829,211.338 1.5,210.5C 2.16667,210.5 2.5,210.167 2.5,209.5C 3.83333,209.167 3.83333,208.833 2.5,208.5 Z"/></g>
<g><path style="opacity:0.004" fill="#b8b8b8" d="M 0.5,208.5 C 1.16667,208.5 1.83333,208.5 2.5,208.5C 2.5,208.833 2.5,209.167 2.5,209.5C 1.83333,209.5 1.5,209.833 1.5,210.5C 0.661754,210.158 0.32842,209.492 0.5,208.5 Z"/></g>
<g><path style="opacity:0.024" fill="#2c2c2c" d="M 17.5,227.5 C 16.2921,228.234 14.9587,228.567 13.5,228.5C 13.5,228.167 13.5,227.833 13.5,227.5C 14.6527,226.687 14.6527,225.687 13.5,224.5C 12.3128,223.481 11.3128,222.314 10.5,221C 9.56323,220.308 8.89657,220.475 8.5,221.5C 8.5,221.833 8.5,222.167 8.5,222.5C 7.83333,222.5 7.16667,222.5 6.5,222.5C 7.59809,221.603 7.59809,220.77 6.5,220C 7.16667,219.667 7.83333,219.333 8.5,219C 7.52912,217.519 6.19578,216.685 4.5,216.5C 4.36899,215.761 4.53566,215.094 5,214.5C 5.65431,215.696 6.15431,215.696 6.5,214.5C 6.44235,212.019 5.44235,209.685 3.5,207.5C 3.5,207.167 3.5,206.833 3.5,206.5C 3.41423,205.504 3.74756,204.671 4.5,204C 3.61947,203.292 2.9528,202.458 2.5,201.5C 3.40397,200.791 3.73731,199.791 3.5,198.5C 4.2323,197.192 5.06564,195.858 6,194.5C 6.09024,197.879 7.59024,200.879 10.5,203.5C 7.92435,204.883 8.25769,205.717 11.5,206C 10.6433,206.689 9.97665,207.522 9.5,208.5C 10.6953,209.967 10.6953,211.467 9.5,213C 9.90307,214.473 10.5697,215.806 11.5,217C 11.1667,217.333 10.8333,217.667 10.5,218C 11.5,218.667 12.5,218.667 13.5,218C 12.5494,217.282 12.3828,216.449 13,215.5C 13.9794,217.32 15.4794,218.487 17.5,219C 17.1667,220 16.8333,221 16.5,222C 17.1667,223.333 18.1667,224.333 19.5,225C 18.244,225.417 17.5774,226.25 17.5,227.5 Z"/></g>
<g><path style="opacity:0.004" fill="#fefffe" d="M 249.5,210.5 C 250.167,210.5 250.833,210.5 251.5,210.5C 251.5,210.833 251.5,211.167 251.5,211.5C 250.508,211.672 249.842,211.338 249.5,210.5 Z"/></g>
<g><path style="opacity:0.024" fill="#2c2c2c" d="M 247.5,187.5 C 247.671,188.879 247.838,190.546 248,192.5C 249.107,191.288 249.607,191.621 249.5,193.5C 249.5,193.833 249.5,194.167 249.5,194.5C 247.65,193.128 246.317,193.628 245.5,196C 245.822,198.745 246.489,201.245 247.5,203.5C 247.5,204.167 247.5,204.833 247.5,205.5C 245.998,208.413 244.998,211.58 244.5,215C 244.728,215.399 245.062,215.565 245.5,215.5C 245.328,216.492 245.662,217.158 246.5,217.5C 246.5,217.833 246.5,218.167 246.5,218.5C 246.167,218.5 245.833,218.5 245.5,218.5C 244.833,218.5 244.167,218.5 243.5,218.5C 242.167,218.833 240.833,219.167 239.5,219.5C 238.761,219.631 238.094,219.464 237.5,219C 240.235,216.037 241.235,212.704 240.5,209C 241.364,207.863 242.364,206.53 243.5,205C 242.087,202.613 241.42,200.28 241.5,198C 242.358,196.212 243.358,194.378 244.5,192.5C 244.167,190.5 243.833,188.5 243.5,186.5C 243.667,186.167 243.833,185.833 244,185.5C 244.816,186.823 245.983,187.489 247.5,187.5 Z"/></g>
<g><path style="opacity:0.004" fill="#bdbdbd" d="M 247.5,211.5 C 248.514,212.674 249.847,213.34 251.5,213.5C 251.5,213.833 251.5,214.167 251.5,214.5C 250.607,216.297 249.274,217.63 247.5,218.5C 247.5,218.167 247.5,217.833 247.5,217.5C 248.769,215.743 248.769,214.743 247.5,214.5C 246.167,213.5 246.167,212.5 247.5,211.5 Z"/></g>
<g><path style="opacity:0.004" fill="#d8d8d8" d="M 4.5,216.5 C 6.19578,216.685 7.52912,217.519 8.5,219C 7.83333,219.333 7.16667,219.667 6.5,220C 7.59809,220.77 7.59809,221.603 6.5,222.5C 7.69532,226.286 8.36199,226.286 8.5,222.5C 8.5,222.167 8.5,221.833 8.5,221.5C 9.40397,222.209 9.73731,223.209 9.5,224.5C 9.5,224.833 9.5,225.167 9.5,225.5C 9.5,225.833 9.5,226.167 9.5,226.5C 8.16667,226.833 8.16667,227.167 9.5,227.5C 9.5,227.833 9.5,228.167 9.5,228.5C 8.66175,228.842 8.32842,229.508 8.5,230.5C 7.83333,230.5 7.5,230.833 7.5,231.5C 6.39953,229.723 5.56619,227.723 5,225.5C 4.34569,226.696 3.84569,226.696 3.5,225.5C 5.91137,223.681 6.07804,221.681 4,219.5C 3.66667,220.5 3.33333,221.5 3,222.5C 1.97997,221.109 1.14664,219.609 0.5,218C 1.54896,217.508 2.54896,217.674 3.5,218.5C 4.29755,218.043 4.63088,217.376 4.5,216.5 Z M 6.5,222.5 C 7.16667,222.5 7.83333,222.5 8.5,222.5C 8.36199,226.286 7.69532,226.286 6.5,222.5 Z"/></g>
<g><path style="opacity:0.008" fill="#979797" d="M 243.5,218.5 C 244.167,219.833 244.833,219.833 245.5,218.5C 245.833,218.5 246.167,218.5 246.5,218.5C 246.833,218.5 247.167,218.5 247.5,218.5C 247.167,219.167 246.833,219.833 246.5,220.5C 245.833,220.5 245.5,220.833 245.5,221.5C 245.167,221.5 244.833,221.5 244.5,221.5C 244.44,220.957 244.107,220.624 243.5,220.5C 242.614,221.325 242.281,222.325 242.5,223.5C 241.833,223.5 241.5,223.833 241.5,224.5C 241.167,224.5 240.833,224.5 240.5,224.5C 240.176,223.188 239.509,222.355 238.5,222C 238.743,221.098 239.077,220.265 239.5,219.5C 240.833,219.167 242.167,218.833 243.5,218.5 Z"/></g>
<g><path style="opacity:0.008" fill="#7b7b7b" d="M 8.5,221.5 C 8.89657,220.475 9.56323,220.308 10.5,221C 11.3128,222.314 12.3128,223.481 13.5,224.5C 14.6527,225.687 14.6527,226.687 13.5,227.5C 13.1667,227.5 12.8333,227.5 12.5,227.5C 12.7148,225.821 12.0481,224.821 10.5,224.5C 10.1667,224.5 9.83333,224.5 9.5,224.5C 9.73731,223.209 9.40397,222.209 8.5,221.5 Z"/></g>
<g><path style="opacity:0.004" fill="#fefffe" d="M 246.5,220.5 C 248.851,221.916 248.851,223.583 246.5,225.5C 246.027,224.094 245.027,223.427 243.5,223.5C 243.328,222.508 243.662,221.842 244.5,221.5C 244.833,222.833 245.167,222.833 245.5,221.5C 246.167,221.5 246.5,221.167 246.5,220.5 Z"/></g>
<g><path style="opacity:0.016" fill="#555555" d="M 239.5,224.5 C 239.833,225.833 240.167,225.833 240.5,224.5C 240.833,224.5 241.167,224.5 241.5,224.5C 241.833,225.167 242.167,225.833 242.5,226.5C 242.167,226.5 241.833,226.5 241.5,226.5C 240.662,226.842 240.328,227.508 240.5,228.5C 240.158,229.338 239.492,229.672 238.5,229.5C 237.833,229.5 237.5,229.167 237.5,228.5C 235.649,227.134 235.316,225.467 236.5,223.5C 237.417,224.127 238.417,224.461 239.5,224.5 Z"/></g>
<g><path style="opacity:0.005" fill="#1d1d1d" d="M 10.5,224.5 C 12.0481,224.821 12.7148,225.821 12.5,227.5C 12.1667,227.5 11.8333,227.5 11.5,227.5C 10.8333,227.5 10.1667,227.5 9.5,227.5C 9.5,227.167 9.5,226.833 9.5,226.5C 9.5,226.167 9.5,225.833 9.5,225.5C 10.1667,225.5 10.5,225.167 10.5,224.5 Z"/></g>
<g><path style="opacity:0.004" fill="#fefffe" d="M 246.5,225.5 C 245.833,226.167 245.833,226.167 246.5,225.5 Z"/></g>
<g><path style="opacity:0.004" fill="#fefffe" d="M 11.5,227.5 C 11.8333,227.5 12.1667,227.5 12.5,227.5C 12.8333,227.5 13.1667,227.5 13.5,227.5C 13.5,227.833 13.5,228.167 13.5,228.5C 12.1667,228.833 12.1667,229.167 13.5,229.5C 13.5,229.833 13.5,230.167 13.5,230.5C 12.8333,230.5 12.5,230.833 12.5,231.5C 11.8333,231.5 11.5,231.167 11.5,230.5C 10.8333,229.833 10.1667,229.167 9.5,228.5C 10.4916,228.672 11.1583,228.338 11.5,227.5 Z"/></g>
<g><path style="opacity:0.004" fill="#fefffe" d="M 243.5,229.5 C 243.5,229.167 243.5,228.833 243.5,228.5C 246.167,228.833 246.167,229.167 243.5,229.5 Z"/></g>
<g><path style="opacity:0.005" fill="#000000" d="M 14.5,229.5 C 17.4811,229.794 18.1478,231.128 16.5,233.5C 15.8333,233.5 15.5,233.833 15.5,234.5C 15.1667,234.5 14.8333,234.5 14.5,234.5C 14.5,234.167 14.5,233.833 14.5,233.5C 15.6602,231.797 14.9935,231.131 12.5,231.5C 12.5,230.833 12.8333,230.5 13.5,230.5C 14.1667,230.5 14.5,230.167 14.5,229.5 Z"/></g>
<g><path style="opacity:0.004" fill="#fefffe" d="M 8.5,230.5 C 8.83333,230.5 9.16667,230.5 9.5,230.5C 9.5,231.167 9.5,231.833 9.5,232.5C 8.07546,234.031 7.40879,233.698 7.5,231.5C 8.16667,231.5 8.5,231.167 8.5,230.5 Z"/></g>
<g><path style="opacity:0.004" fill="#292929" d="M 9.5,230.5 C 10.1667,230.5 10.8333,230.5 11.5,230.5C 11.5,231.167 11.8333,231.5 12.5,231.5C 12.5,231.833 12.5,232.167 12.5,232.5C 11.5,232.5 10.5,232.5 9.5,232.5C 9.5,231.833 9.5,231.167 9.5,230.5 Z"/></g>
<g><path style="opacity:0.004" fill="#fefffe" d="M 12.5,232.5 C 12.5,232.167 12.5,231.833 12.5,231.5C 14.9935,231.131 15.6602,231.797 14.5,233.5C 14.1667,233.5 13.8333,233.5 13.5,233.5C 13.5,232.833 13.1667,232.5 12.5,232.5 Z"/></g>
<g><path style="opacity:0.008" fill="#989898" d="M 17.5,227.5 C 19.9883,233.487 24.3216,237.653 30.5,240C 29.451,240.492 28.451,240.326 27.5,239.5C 26.7025,239.957 26.3691,240.624 26.5,241.5C 25.8333,241.5 25.1667,241.5 24.5,241.5C 24.5,241.167 24.5,240.833 24.5,240.5C 25.8333,240.167 25.8333,239.833 24.5,239.5C 23.805,237.15 22.4717,236.483 20.5,237.5C 20.1667,236.167 19.8333,236.167 19.5,237.5C 18.8333,237.5 18.5,237.167 18.5,236.5C 18.6716,235.508 18.3382,234.842 17.5,234.5C 17.5,233.833 17.1667,233.5 16.5,233.5C 18.1478,231.128 17.4811,229.794 14.5,229.5C 14.1667,229.5 13.8333,229.5 13.5,229.5C 12.1667,229.167 12.1667,228.833 13.5,228.5C 14.9587,228.567 16.2921,228.234 17.5,227.5 Z"/></g>
<g><path style="opacity:0.004" fill="#eeeeee" d="M 242.5,223.5 C 242.833,223.5 243.167,223.5 243.5,223.5C 244.071,224.973 244.071,226.64 243.5,228.5C 242.167,228.833 242.167,229.167 243.5,229.5C 243.836,231.475 243.336,233.475 242,235.5C 241.329,236.252 240.496,236.586 239.5,236.5C 239.5,235.833 239.167,235.5 238.5,235.5C 238.5,234.833 238.5,234.167 238.5,233.5C 237.833,233.833 237.167,234.167 236.5,234.5C 236.5,233.833 236.167,233.5 235.5,233.5C 235.5,232.833 235.833,232.5 236.5,232.5C 237.833,231.833 237.833,231.167 236.5,230.5C 236.5,229.833 236.167,229.5 235.5,229.5C 235.842,228.662 236.508,228.328 237.5,228.5C 237.5,229.167 237.833,229.5 238.5,229.5C 239.466,232.125 240.466,232.125 241.5,229.5C 241.376,228.893 241.043,228.56 240.5,228.5C 240.328,227.508 240.662,226.842 241.5,226.5C 241.833,227.833 242.167,227.833 242.5,226.5C 242.167,225.833 241.833,225.167 241.5,224.5C 242.167,224.5 242.5,224.167 242.5,223.5 Z M 240.5,228.5 C 241.043,228.56 241.376,228.893 241.5,229.5C 240.466,232.125 239.466,232.125 238.5,229.5C 239.492,229.672 240.158,229.338 240.5,228.5 Z M 238.5,233.5 C 239.497,232.287 240.497,232.454 241.5,234C 240.423,234.47 239.423,234.303 238.5,233.5 Z"/></g>
<g><path style="opacity:0.004" fill="#cfcfcf" d="M 235.5,233.5 C 236.167,233.5 236.5,233.833 236.5,234.5C 235.496,236.677 236.162,237.011 238.5,235.5C 239.167,235.5 239.5,235.833 239.5,236.5C 238.833,237.167 238.167,237.833 237.5,238.5C 236.761,238.369 236.094,238.536 235.5,239C 236.451,239.718 236.617,240.551 236,241.5C 234.989,240.663 233.822,240.33 232.5,240.5C 232.167,239.167 231.833,239.167 231.5,240.5C 230.508,240.672 229.842,240.338 229.5,239.5C 229.5,238.833 229.167,238.5 228.5,238.5C 227.227,237.923 227.227,237.257 228.5,236.5C 229.183,236.863 229.85,237.196 230.5,237.5C 230.435,237.938 230.601,238.272 231,238.5C 231.995,237.934 232.828,237.267 233.5,236.5C 234.833,236.167 234.833,235.833 233.5,235.5C 230.875,234.534 230.875,233.534 233.5,232.5C 234.183,232.863 234.85,233.196 235.5,233.5 Z M 233.5,236.5 C 232.828,237.267 231.995,237.934 231,238.5C 230.601,238.272 230.435,237.938 230.5,237.5C 231.209,236.596 232.209,236.263 233.5,236.5 Z"/></g>
<g><path style="opacity:0.004" fill="#fefffe" d="M 13.5,233.5 C 12.7961,235.344 11.4628,235.844 9.5,235C 10.745,234.209 12.0783,233.709 13.5,233.5 Z"/></g>
<g><path style="opacity:0.004" fill="#d6d6d6" d="M 14.5,234.5 C 14.8333,234.5 15.1667,234.5 15.5,234.5C 16.1667,234.5 16.8333,234.5 17.5,234.5C 17.5,235.167 17.5,235.833 17.5,236.5C 16.5,236.5 15.5,236.5 14.5,236.5C 14.5,235.833 14.5,235.167 14.5,234.5 Z"/></g>
<g><path style="opacity:0.004" fill="#fefffe" d="M 11.5,237.5 C 10.8333,236.167 10.8333,236.167 11.5,237.5 Z"/></g>
<g><path style="opacity:0.004" fill="#fefffe" d="M 14.5,236.5 C 16.7633,237.59 16.93,238.923 15,240.5C 13.4815,239.837 12.3149,238.837 11.5,237.5C 12.391,236.89 13.391,236.557 14.5,236.5 Z"/></g>
<g><path style="opacity:0.004" fill="#000000" d="M 17.5,236.5 C 17.8333,236.5 18.1667,236.5 18.5,236.5C 18.5,237.167 18.8333,237.5 19.5,237.5C 19.1583,238.338 18.4916,238.672 17.5,238.5C 17.5,237.833 17.5,237.167 17.5,236.5 Z"/></g>
<g><path style="opacity:0.005" fill="#000000" d="M 24.5,239.5 C 23.609,238.89 22.609,238.557 21.5,238.5C 21.1667,238.5 20.8333,238.5 20.5,238.5C 20.5,238.167 20.5,237.833 20.5,237.5C 22.4717,236.483 23.805,237.15 24.5,239.5 Z"/></g>
<g><path style="opacity:0.004" fill="#ededed" d="M 19.5,237.5 C 19.8333,237.5 20.1667,237.5 20.5,237.5C 20.5,237.833 20.5,238.167 20.5,238.5C 20.3691,239.376 20.7025,240.043 21.5,240.5C 22.463,240.03 22.463,239.363 21.5,238.5C 22.609,238.557 23.609,238.89 24.5,239.5C 24.5,239.833 24.5,240.167 24.5,240.5C 23.1667,240.833 23.1667,241.167 24.5,241.5C 24.8333,242.5 25.5,243.167 26.5,243.5C 26.5,244.167 26.8333,244.5 27.5,244.5C 26.928,245.973 26.0946,247.307 25,248.5C 23.1344,246.659 21.1344,244.992 19,243.5C 17.6361,244.258 16.4695,243.758 15.5,242C 19.2054,241.578 19.8721,240.412 17.5,238.5C 18.4916,238.672 19.1583,238.338 19.5,237.5 Z M 20.5,238.5 C 20.8333,238.5 21.1667,238.5 21.5,238.5C 22.463,239.363 22.463,240.03 21.5,240.5C 20.7025,240.043 20.3691,239.376 20.5,238.5 Z M 22.5,242.5 C 23.3382,242.842 23.6716,243.508 23.5,244.5C 21.3023,244.591 20.9689,243.925 22.5,242.5 Z"/></g>
<g><path style="opacity:0.012" fill="#4e4e4e" d="M 235.5,229.5 C 236.167,229.5 236.5,229.833 236.5,230.5C 236.5,231.167 236.5,231.833 236.5,232.5C 235.833,232.5 235.5,232.833 235.5,233.5C 234.85,233.196 234.183,232.863 233.5,232.5C 230.875,233.534 230.875,234.534 233.5,235.5C 233.5,235.833 233.5,236.167 233.5,236.5C 232.209,236.263 231.209,236.596 230.5,237.5C 229.85,237.196 229.183,236.863 228.5,236.5C 227.227,237.257 227.227,237.923 228.5,238.5C 228.5,238.833 228.5,239.167 228.5,239.5C 228.167,239.5 227.833,239.5 227.5,239.5C 225.517,239.157 224.183,239.824 223.5,241.5C 223.167,241.5 222.833,241.5 222.5,241.5C 222.167,241.5 221.833,241.5 221.5,241.5C 221.167,241.5 220.833,241.5 220.5,241.5C 220.5,241.167 220.5,240.833 220.5,240.5C 220.082,239.778 219.416,239.278 218.5,239C 221.913,237.923 224.413,235.756 226,232.5C 226.915,233.328 227.581,234.328 228,235.5C 228.5,235 229,234.5 229.5,234C 228.483,232.951 228.316,231.784 229,230.5C 231.173,233.277 231.673,233.11 230.5,230C 231.744,229.544 232.577,230.044 233,231.5C 233.708,230.619 234.542,229.953 235.5,229.5 Z"/></g>
<g><path style="opacity:0.004" fill="#fefffe" d="M 237.5,238.5 C 238.833,239.167 238.833,239.167 237.5,238.5 Z"/></g>
<g><path style="opacity:0.004" fill="#fefffe" d="M 227.5,239.5 C 227.833,240.833 228.167,240.833 228.5,239.5C 228.833,239.5 229.167,239.5 229.5,239.5C 229.842,240.338 230.508,240.672 231.5,240.5C 231.833,240.5 232.167,240.5 232.5,240.5C 232.833,241.167 233.167,241.833 233.5,242.5C 232.29,242.932 231.29,243.599 230.5,244.5C 229.761,244.631 229.094,244.464 228.5,244C 229.451,243.282 229.617,242.449 229,241.5C 227.19,244.018 225.357,244.018 223.5,241.5C 224.183,239.824 225.517,239.157 227.5,239.5 Z"/></g>
<g><path style="opacity:0.037" fill="#272727" d="M 179.5,248.5 C 178.178,248.33 177.011,248.663 176,249.5C 173.685,247.501 171.185,247.501 168.5,249.5C 167.5,249.5 166.5,249.5 165.5,249.5C 164.833,249.167 164.167,248.833 163.5,248.5C 164.542,247.209 165.708,247.209 167,248.5C 167.692,247.563 167.525,246.897 166.5,246.5C 166.577,245.25 167.244,244.417 168.5,244C 168.167,243.667 167.833,243.333 167.5,243C 170.89,242.754 174.223,242.254 177.5,241.5C 178.354,242.522 179.354,243.355 180.5,244C 179.833,244.333 179.167,244.667 178.5,245C 180.373,245.953 180.706,247.12 179.5,248.5 Z"/></g>
<g><path style="opacity:0.004" fill="#dddddd" d="M 221.5,241.5 C 221.833,241.5 222.167,241.5 222.5,241.5C 223.973,243.395 225.64,245.061 227.5,246.5C 226.027,247.74 224.36,248.74 222.5,249.5C 221.893,249.376 221.56,249.043 221.5,248.5C 222.833,248.167 222.833,247.833 221.5,247.5C 221.5,246.833 221.5,246.167 221.5,245.5C 222.833,245.167 222.833,244.833 221.5,244.5C 221.167,243.833 220.833,243.167 220.5,242.5C 221.167,242.5 221.5,242.167 221.5,241.5 Z"/></g>
<g><path style="opacity:0.035" fill="#282828" d="M 63.5,247.5 C 63.5,247.833 63.5,248.167 63.5,248.5C 62.8333,248.833 62.1667,249.167 61.5,249.5C 61.1667,248.167 60.8333,248.167 60.5,249.5C 60.1667,249.5 59.8333,249.5 59.5,249.5C 59.1583,248.662 58.4916,248.328 57.5,248.5C 57.1667,247.167 56.8333,247.167 56.5,248.5C 56.1667,248.5 55.8333,248.5 55.5,248.5C 54.0755,246.969 53.4088,247.302 53.5,249.5C 52.5084,249.672 51.8417,249.338 51.5,248.5C 52.3382,248.158 52.6716,247.492 52.5,246.5C 53.7914,245.527 53.7914,244.527 52.5,243.5C 54.9257,242.832 57.259,242.498 59.5,242.5C 61.5522,243.611 62.8855,245.277 63.5,247.5 Z"/></g>
<g><path style="opacity:0.036" fill="#232323" d="M 158.5,245.5 C 158.217,246.289 157.717,246.956 157,247.5C 154.395,246.186 151.895,246.186 149.5,247.5C 148.833,248.167 148.167,248.833 147.5,249.5C 147.5,249.167 147.5,248.833 147.5,248.5C 146.866,247.053 145.699,246.387 144,246.5C 142.624,246.684 141.791,247.351 141.5,248.5C 141.167,248.5 140.833,248.5 140.5,248.5C 138.56,245.959 136.393,245.959 134,248.5C 131.821,247.16 131.321,247.493 132.5,249.5C 131.662,249.842 131.328,250.508 131.5,251.5C 131.167,251.5 130.833,251.5 130.5,251.5C 130.5,250.833 130.5,250.167 130.5,249.5C 130.209,248.351 129.376,247.684 128,247.5C 126.061,247.954 124.228,248.621 122.5,249.5C 121.794,248.443 121.461,248.776 121.5,250.5C 120.348,249.375 119.348,249.375 118.5,250.5C 118.167,250.5 117.833,250.5 117.5,250.5C 116.833,249.833 116.167,249.167 115.5,248.5C 115.901,247.009 116.068,245.342 116,243.5C 117.943,244.315 119.943,245.315 122,246.5C 122.5,246 123,245.5 123.5,245C 123.596,243.627 123.43,242.127 123,240.5C 125.721,244.014 128.888,244.347 132.5,241.5C 135.705,241.911 138.872,242.245 142,242.5C 142.333,241.833 142.667,241.167 143,240.5C 144.758,241.469 145.258,242.636 144.5,244C 148.233,247.343 148.899,247.176 146.5,243.5C 146.808,242.692 147.308,242.025 148,241.5C 149.232,244.755 151.232,245.088 154,242.5C 155.31,243.897 156.81,244.897 158.5,245.5 Z"/></g>
<g><path style="opacity:0.004" fill="#000000" d="M 220.5,242.5 C 220.833,243.167 221.167,243.833 221.5,244.5C 220.5,244.5 219.5,244.5 218.5,244.5C 218.833,243.5 219.5,242.833 220.5,242.5 Z"/></g>
<g><path style="opacity:0.004" fill="#fefffe" d="M 233.5,242.5 C 234.833,243.167 234.833,243.167 233.5,242.5 Z"/></g>
<g><path style="opacity:0.004" fill="#c4c4c4" d="M 32.5,242.5 C 33.6353,244.088 34.9686,244.421 36.5,243.5C 37.2975,243.957 37.6309,244.624 37.5,245.5C 36.209,245.263 35.209,245.596 34.5,246.5C 34.5,247.167 34.1667,247.5 33.5,247.5C 32.209,247.263 31.209,247.596 30.5,248.5C 29.2438,248.539 28.2438,248.039 27.5,247C 30.1396,244.797 30.1396,243.963 27.5,244.5C 27.5,244.167 27.5,243.833 27.5,243.5C 27.4701,242.503 27.9701,241.836 29,241.5C 30.1385,241.989 31.3052,242.322 32.5,242.5 Z"/></g>
<g><path style="opacity:0.012" fill="#3d3d3d" d="M 49.5,243.5 C 49.8333,244.167 50.1667,244.833 50.5,245.5C 48.8102,245.856 47.8102,246.856 47.5,248.5C 47.1667,248.5 46.8333,248.5 46.5,248.5C 46.631,247.761 46.4643,247.094 46,246.5C 44.6651,247.08 43.4985,247.413 42.5,247.5C 42.1667,247.5 41.8333,247.5 41.5,247.5C 40.791,246.596 39.791,246.263 38.5,246.5C 38.5,245.833 38.1667,245.5 37.5,245.5C 37.6309,244.624 37.2975,243.957 36.5,243.5C 34.9686,244.421 33.6353,244.088 32.5,242.5C 30.9663,240.658 31.2997,239.325 33.5,238.5C 35.503,238.911 37.3363,240.245 39,242.5C 41.8454,241.742 44.1787,242.742 46,245.5C 46.8159,244.177 47.9826,243.511 49.5,243.5 Z"/></g>
<g><path style="opacity:0.004" fill="#dfdfdf" d="M 218.5,244.5 C 219.5,244.5 220.5,244.5 221.5,244.5C 221.5,244.833 221.5,245.167 221.5,245.5C 220.167,246.167 220.167,246.833 221.5,247.5C 221.5,247.833 221.5,248.167 221.5,248.5C 220.528,250.493 219.195,250.826 217.5,249.5C 216.833,248.833 216.167,248.167 215.5,247.5C 216.222,247.082 216.722,246.416 217,245.5C 218.107,246.712 218.607,246.379 218.5,244.5 Z"/></g>
<g><path style="opacity:0.004" fill="#fefffe" d="M 230.5,244.5 C 231.833,245.167 231.833,245.167 230.5,244.5 Z"/></g>
<g><path style="opacity:0.008" fill="#8e8e8e" d="M 50.5,245.5 C 50.8417,246.338 51.5084,246.672 52.5,246.5C 52.6716,247.492 52.3382,248.158 51.5,248.5C 50.6618,248.842 50.3284,249.508 50.5,250.5C 49.2223,250.218 48.2223,249.551 47.5,248.5C 47.8102,246.856 48.8102,245.856 50.5,245.5 Z"/></g>
<g><path style="opacity:0.012" fill="#5f5f5f" d="M 89.5,248.5 C 89.1667,248.5 88.8333,248.5 88.5,248.5C 87.8333,248.5 87.1667,248.5 86.5,248.5C 84.965,247.646 83.6316,247.646 82.5,248.5C 82.5,249.167 82.5,249.833 82.5,250.5C 82.1667,250.5 81.8333,250.5 81.5,250.5C 81.5,249.833 81.1667,249.5 80.5,249.5C 81.7486,245.442 83.9152,244.442 87,246.5C 88.6255,245.588 89.4588,246.255 89.5,248.5 Z"/></g>
<g><path style="opacity:0.016" fill="#3a3a3a" d="M 99.5,246.5 C 100.167,247.5 100.833,248.5 101.5,249.5C 100.833,249.5 100.167,249.5 99.5,249.5C 99.1667,249.5 98.8333,249.5 98.5,249.5C 98.1667,249.5 97.8333,249.5 97.5,249.5C 95.9567,247.443 94.9567,247.443 94.5,249.5C 94.1667,249.5 93.8333,249.5 93.5,249.5C 93.5912,247.302 92.9245,246.969 91.5,248.5C 91.3893,247.883 91.056,247.383 90.5,247C 93.5754,244.206 96.5754,244.04 99.5,246.5 Z"/></g>
<g><path style="opacity:0.016" fill="#3e3e3e" d="M 194.5,246.5 C 192.358,246.69 190.025,246.856 187.5,247C 186.944,247.383 186.611,247.883 186.5,248.5C 185.833,248.5 185.167,248.5 184.5,248.5C 184.167,247.167 183.833,247.167 183.5,248.5C 183.167,248.5 182.833,248.5 182.5,248.5C 181.402,247.603 181.402,246.77 182.5,246C 185.124,246.309 187.624,245.476 190,243.5C 191.403,245.198 193.236,245.698 195.5,245C 196.712,246.107 196.379,246.607 194.5,246.5 Z"/></g>
<g><path style="opacity:0.004" fill="#afafaf" d="M 220.5,240.5 C 220.5,240.833 220.5,241.167 220.5,241.5C 220.5,241.833 220.5,242.167 220.5,242.5C 219.5,242.833 218.833,243.5 218.5,244.5C 215.506,244.146 214.506,245.146 215.5,247.5C 213.451,247.706 213.117,248.539 214.5,250C 212.803,250.384 211.137,250.218 209.5,249.5C 209.5,249.167 209.5,248.833 209.5,248.5C 210.833,248.167 210.833,247.833 209.5,247.5C 209.5,247.167 209.5,246.833 209.5,246.5C 210.848,245.814 212.015,244.814 213,243.5C 213.333,243.833 213.667,244.167 214,244.5C 215.044,243.377 215.71,242.044 216,240.5C 217.414,241.413 218.914,241.413 220.5,240.5 Z"/></g>
<g><path style="opacity:0.004" fill="#f4f4f4" d="M 34.5,246.5 C 35.8333,246.5 37.1667,246.5 38.5,246.5C 39.791,246.263 40.791,246.596 41.5,247.5C 41.8333,248.833 42.1667,248.833 42.5,247.5C 43.4985,247.413 44.6651,247.08 46,246.5C 46.4643,247.094 46.631,247.761 46.5,248.5C 45.8902,249.391 45.5569,250.391 45.5,251.5C 42.8333,251.5 40.1667,251.5 37.5,251.5C 36.4039,247.711 35.7373,247.711 35.5,251.5C 35.1667,251.5 34.8333,251.5 34.5,251.5C 34.631,250.761 34.4643,250.094 34,249.5C 33.3457,250.696 32.8457,250.696 32.5,249.5C 32.8627,248.817 33.1961,248.15 33.5,247.5C 34.1667,247.5 34.5,247.167 34.5,246.5 Z"/></g>
<g><path style="opacity:0.008" fill="#8b8b8b" d="M 74.5,248.5 C 74.5,248.833 74.5,249.167 74.5,249.5C 74.5,249.833 74.5,250.167 74.5,250.5C 73.0755,248.969 72.4088,249.302 72.5,251.5C 72.1667,251.5 71.8333,251.5 71.5,251.5C 71.1667,248.833 70.8333,248.833 70.5,251.5C 70.1667,251.5 69.8333,251.5 69.5,251.5C 69.5,250.833 69.5,250.167 69.5,249.5C 69.5,248.833 69.1667,248.5 68.5,248.5C 68.7911,247.351 69.6244,246.684 71,246.5C 72.6991,246.387 73.8658,247.053 74.5,248.5 Z"/></g>
<g><path style="opacity:0.008" fill="#575757" d="M 110.5,247.5 C 110.5,248.167 110.5,248.833 110.5,249.5C 109.833,249.833 109.167,250.167 108.5,250.5C 108.672,249.508 108.338,248.842 107.5,248.5C 106.833,248.5 106.5,248.167 106.5,247.5C 106.418,245.748 107.251,244.748 109,244.5C 112.39,245.732 112.223,246.566 108.5,247C 109.094,247.464 109.761,247.631 110.5,247.5 Z"/></g>
<g><path style="opacity:0.008" fill="#a0a0a0" d="M 140.5,248.5 C 140.631,249.239 140.464,249.906 140,250.5C 138.708,249.209 137.542,249.209 136.5,250.5C 136.167,250.5 135.833,250.5 135.5,250.5C 134.791,249.596 133.791,249.263 132.5,249.5C 131.321,247.493 131.821,247.16 134,248.5C 136.393,245.959 138.56,245.959 140.5,248.5 Z"/></g>
<g><path style="opacity:0.012" fill="#707070" d="M 147.5,248.5 C 147.167,248.5 146.833,248.5 146.5,248.5C 145.504,248.586 144.671,248.252 144,247.5C 143.536,248.094 143.369,248.761 143.5,249.5C 142.167,249.833 142.167,250.167 143.5,250.5C 143.5,250.833 143.5,251.167 143.5,251.5C 142.833,251.5 142.167,251.5 141.5,251.5C 141.5,250.5 141.5,249.5 141.5,248.5C 141.791,247.351 142.624,246.684 144,246.5C 145.699,246.387 146.866,247.053 147.5,248.5 Z"/></g>
<g><path style="opacity:0.008" fill="#5d5d5d" d="M 158.5,245.5 C 159.222,245.918 159.722,246.584 160,247.5C 160.333,246.833 160.667,246.167 161,245.5C 162.699,246.406 164.533,246.739 166.5,246.5C 167.525,246.897 167.692,247.563 167,248.5C 165.708,247.209 164.542,247.209 163.5,248.5C 163.167,248.5 162.833,248.5 162.5,248.5C 162.167,248.5 161.833,248.5 161.5,248.5C 160.833,248.5 160.167,248.5 159.5,248.5C 158.833,248.5 158.167,248.5 157.5,248.5C 156.778,248.918 156.278,249.584 156,250.5C 155.841,248.657 155.341,247.991 154.5,248.5C 153.508,248.328 152.842,248.662 152.5,249.5C 152.167,249.5 151.833,249.5 151.5,249.5C 151.5,248.167 150.833,247.5 149.5,247.5C 151.895,246.186 154.395,246.186 157,247.5C 157.717,246.956 158.217,246.289 158.5,245.5 Z"/></g>
<g><path style="opacity:0.008" fill="#787878" d="M 194.5,246.5 C 194.833,247.167 195.167,247.833 195.5,248.5C 195.167,248.5 194.833,248.5 194.5,248.5C 193.5,248.5 192.5,248.5 191.5,248.5C 190.027,249.071 188.36,249.071 186.5,248.5C 186.611,247.883 186.944,247.383 187.5,247C 190.025,246.856 192.358,246.69 194.5,246.5 Z"/></g>
<g><path style="opacity:0.004" fill="#f9f9f9" d="M 203.5,247.5 C 203.328,248.492 203.662,249.158 204.5,249.5C 205.67,247.721 207.336,246.721 209.5,246.5C 209.5,246.833 209.5,247.167 209.5,247.5C 209.5,247.833 209.5,248.167 209.5,248.5C 209.5,248.833 209.5,249.167 209.5,249.5C 209.833,250.167 210.167,250.833 210.5,251.5C 209.833,251.5 209.167,251.5 208.5,251.5C 208.214,249.067 207.548,249.067 206.5,251.5C 206.167,251.5 205.833,251.5 205.5,251.5C 205.167,250.167 204.833,250.167 204.5,251.5C 203.833,251.5 203.167,251.5 202.5,251.5C 202.167,250.167 201.833,250.167 201.5,251.5C 201.167,251.5 200.833,251.5 200.5,251.5C 200.167,250.167 199.833,250.167 199.5,251.5C 198.833,251.5 198.167,251.5 197.5,251.5C 197.5,251.167 197.5,250.833 197.5,250.5C 198.833,250.167 198.833,249.833 197.5,249.5C 197.167,249.5 196.833,249.5 196.5,249.5C 196.5,249.167 196.5,248.833 196.5,248.5C 197.999,247.506 199.666,247.506 201.5,248.5C 201.833,249.833 202.167,249.833 202.5,248.5C 201.321,246.591 201.654,246.258 203.5,247.5 Z"/></g>
<g><path style="opacity:0.004" fill="#fefffe" d="M 227.5,246.5 C 228.833,247.167 228.833,247.167 227.5,246.5 Z"/></g>
<g><path style="opacity:0.004" fill="#fefffe" d="M 55.5,248.5 C 55.8333,249.833 56.1667,249.833 56.5,248.5C 56.8333,247.167 57.1667,247.167 57.5,248.5C 57.8417,249.338 58.5084,249.672 59.5,249.5C 59.5,250.167 59.5,250.833 59.5,251.5C 56.5,251.5 53.5,251.5 50.5,251.5C 50.5,251.167 50.5,250.833 50.5,250.5C 51.791,250.737 52.791,250.404 53.5,249.5C 53.4088,247.302 54.0755,246.969 55.5,248.5 Z"/></g>
<g><path style="opacity:0.004" fill="#efefef" d="M 79.5,249.5 C 79.8333,249.5 80.1667,249.5 80.5,249.5C 81.1667,249.5 81.5,249.833 81.5,250.5C 81.5,250.833 81.5,251.167 81.5,251.5C 79.1667,251.5 76.8333,251.5 74.5,251.5C 74.5,251.167 74.5,250.833 74.5,250.5C 75.8333,250.167 75.8333,249.833 74.5,249.5C 74.5,249.167 74.5,248.833 74.5,248.5C 75.9305,248.579 77.2638,248.246 78.5,247.5C 79.2975,247.957 79.6309,248.624 79.5,249.5 Z"/></g>
<g><path style="opacity:0.004" fill="#fefffe" d="M 93.5,249.5 C 93.8333,250.167 94.1667,250.833 94.5,251.5C 93.1667,251.5 91.8333,251.5 90.5,251.5C 90.5,251.167 90.5,250.833 90.5,250.5C 91.3382,250.158 91.6716,249.492 91.5,248.5C 92.9245,246.969 93.5912,247.302 93.5,249.5 Z"/></g>
<g><path style="opacity:0.004" fill="#fefffe" d="M 97.5,249.5 C 96.5,249.5 95.5,249.5 94.5,249.5C 94.9567,247.443 95.9567,247.443 97.5,249.5 Z"/></g>
<g><path style="opacity:0.004" fill="#e8e8e8" d="M 130.5,249.5 C 129.178,249.67 128.011,249.337 127,248.5C 126.536,249.094 126.369,249.761 126.5,250.5C 125.508,250.328 124.842,250.662 124.5,251.5C 122.833,251.5 121.167,251.5 119.5,251.5C 119.5,250.833 119.167,250.5 118.5,250.5C 119.348,249.375 120.348,249.375 121.5,250.5C 122.167,250.5 122.5,250.167 122.5,249.5C 124.228,248.621 126.061,247.954 128,247.5C 129.376,247.684 130.209,248.351 130.5,249.5 Z"/></g>
<g><path style="opacity:0.004" fill="#ebebeb" d="M 146.5,248.5 C 146.5,249.167 146.833,249.5 147.5,249.5C 148.167,248.833 148.833,248.167 149.5,247.5C 150.833,247.5 151.5,248.167 151.5,249.5C 149.694,250.024 148.028,250.691 146.5,251.5C 145.833,251.5 145.167,251.5 144.5,251.5C 144.5,250.833 144.167,250.5 143.5,250.5C 143.5,250.167 143.5,249.833 143.5,249.5C 143.369,248.761 143.536,248.094 144,247.5C 144.671,248.252 145.504,248.586 146.5,248.5 Z"/></g>
<g><path style="opacity:0.004" fill="#dadada" d="M 157.5,248.5 C 158.167,249.833 158.833,249.833 159.5,248.5C 160.167,248.5 160.833,248.5 161.5,248.5C 161.833,249.833 162.167,249.833 162.5,248.5C 162.833,248.5 163.167,248.5 163.5,248.5C 164.167,248.833 164.833,249.167 165.5,249.5C 165.5,250.167 165.5,250.833 165.5,251.5C 164.833,251.5 164.167,251.5 163.5,251.5C 162.5,250.167 161.5,250.167 160.5,251.5C 157.5,251.5 154.5,251.5 151.5,251.5C 151.5,250.833 151.5,250.167 151.5,249.5C 151.833,249.5 152.167,249.5 152.5,249.5C 153.492,249.672 154.158,249.338 154.5,248.5C 155.341,247.991 155.841,248.657 156,250.5C 156.278,249.584 156.778,248.918 157.5,248.5 Z"/></g>
<g><path style="opacity:0.004" fill="#f7f7f7" d="M 179.5,248.5 C 179.842,249.338 180.508,249.672 181.5,249.5C 181.833,250.833 182.167,250.833 182.5,249.5C 183.167,249.5 183.5,249.167 183.5,248.5C 183.833,247.167 184.167,247.167 184.5,248.5C 184.782,249.778 185.449,250.778 186.5,251.5C 184.167,251.5 181.833,251.5 179.5,251.5C 178.452,249.067 177.786,249.067 177.5,251.5C 177.167,251.5 176.833,251.5 176.5,251.5C 175.833,250.167 175.167,250.167 174.5,251.5C 174.167,251.5 173.833,251.5 173.5,251.5C 173.631,250.624 173.298,249.957 172.5,249.5C 171.537,249.97 171.537,250.637 172.5,251.5C 171.167,251.5 169.833,251.5 168.5,251.5C 168.5,250.833 168.5,250.167 168.5,249.5C 171.185,247.501 173.685,247.501 176,249.5C 177.011,248.663 178.178,248.33 179.5,248.5 Z"/></g>
<g><path style="opacity:0.004" fill="#fefffe" d="M 30.5,248.5 C 31.8333,249.167 31.8333,249.167 30.5,248.5 Z"/></g>
<g><path style="opacity:0.004" fill="#cecece" d="M 68.5,248.5 C 69.1667,248.5 69.5,248.833 69.5,249.5C 68.6618,249.842 68.3284,250.508 68.5,251.5C 67.5,251.5 66.5,251.5 65.5,251.5C 65.1667,250.167 64.8333,250.167 64.5,251.5C 64.1667,251.5 63.8333,251.5 63.5,251.5C 63.5,250.5 63.5,249.5 63.5,248.5C 63.5,248.167 63.5,247.833 63.5,247.5C 65.1639,246.777 66.8306,247.11 68.5,248.5 Z"/></g>
<g><path style="opacity:0.004" fill="#efefef" d="M 82.5,248.5 C 83.6316,247.646 84.965,247.646 86.5,248.5C 87.1667,249.833 87.8333,249.833 88.5,248.5C 88.8333,248.5 89.1667,248.5 89.5,248.5C 89.8333,248.5 90.1667,248.5 90.5,248.5C 90.5,249.167 90.5,249.833 90.5,250.5C 89.8333,250.5 89.5,250.833 89.5,251.5C 89.1667,251.5 88.8333,251.5 88.5,251.5C 87.8333,250.167 87.1667,250.167 86.5,251.5C 86.1667,251.5 85.8333,251.5 85.5,251.5C 85.1667,250.167 84.8333,250.167 84.5,251.5C 83.8333,251.5 83.1667,251.5 82.5,251.5C 82.5,251.167 82.5,250.833 82.5,250.5C 83.8333,249.833 83.8333,249.167 82.5,248.5 Z"/></g>
<g><path style="opacity:0.004" fill="#d7d7d7" d="M 99.5,246.5 C 101.999,247.332 104.332,247.665 106.5,247.5C 106.5,248.167 106.833,248.5 107.5,248.5C 105.969,249.925 106.302,250.591 108.5,250.5C 109.167,250.167 109.833,249.833 110.5,249.5C 110.5,248.833 110.5,248.167 110.5,247.5C 111.391,248.11 112.391,248.443 113.5,248.5C 113.443,249.609 113.11,250.609 112.5,251.5C 109.833,251.5 107.167,251.5 104.5,251.5C 104.167,250.167 103.833,250.167 103.5,251.5C 100.833,251.5 98.1667,251.5 95.5,251.5C 96.5,250.833 97.5,250.167 98.5,249.5C 98.8333,249.5 99.1667,249.5 99.5,249.5C 100.167,250.833 100.833,250.833 101.5,249.5C 100.833,248.5 100.167,247.5 99.5,246.5 Z M 107.5,248.5 C 108.338,248.842 108.672,249.508 108.5,250.5C 106.302,250.591 105.969,249.925 107.5,248.5 Z"/></g>
<g><path style="opacity:0.004" fill="#fefffe" d="M 114.5,248.5 C 114.833,248.5 115.167,248.5 115.5,248.5C 116.167,249.167 116.833,249.833 117.5,250.5C 117.5,250.833 117.5,251.167 117.5,251.5C 116.5,251.5 115.5,251.5 114.5,251.5C 114.5,250.5 114.5,249.5 114.5,248.5 Z"/></g>
<g><path style="opacity:0.004" fill="#fefffe" d="M 191.5,248.5 C 192.5,248.5 193.5,248.5 194.5,248.5C 193.494,249.396 193.494,250.062 194.5,250.5C 194.5,250.833 194.5,251.167 194.5,251.5C 193.5,251.5 192.5,251.5 191.5,251.5C 192.833,250.5 192.833,249.5 191.5,248.5 Z"/></g>
<g><path style="opacity:0.004" fill="#000000" d="M 194.5,248.5 C 194.833,248.5 195.167,248.5 195.5,248.5C 195.5,249.167 195.833,249.5 196.5,249.5C 196.833,249.5 197.167,249.5 197.5,249.5C 197.5,249.833 197.5,250.167 197.5,250.5C 196.5,250.5 195.5,250.5 194.5,250.5C 193.494,250.062 193.494,249.396 194.5,248.5 Z"/></g>
<g><path style="opacity:0.004" fill="#fefffe" d="M 60.5,249.5 C 60.8333,249.5 61.1667,249.5 61.5,249.5C 61.3147,250.17 60.9813,250.17 60.5,249.5 Z"/></g>
<g><path style="opacity:0.004" fill="#fefffe" d="M 217.5,249.5 C 217.103,250.525 216.437,250.692 215.5,250C 216.094,249.536 216.761,249.369 217.5,249.5 Z"/></g>
<g><path style="opacity:0.004" fill="#fefffe" d="M 126.5,251.5 C 126.5,251.167 126.5,250.833 126.5,250.5C 127.791,250.263 128.791,250.596 129.5,251.5C 128.5,251.5 127.5,251.5 126.5,251.5 Z"/></g>
<g><path style="opacity:0.004" fill="#fefffe" d="M 132.5,251.5 C 133.209,250.596 134.209,250.263 135.5,250.5C 135.5,250.833 135.5,251.167 135.5,251.5C 134.5,251.5 133.5,251.5 132.5,251.5 Z"/></g>
<g><path style="opacity:0.004" fill="#fefffe" d="M 136.5,250.5 C 137.167,250.5 137.5,250.833 137.5,251.5C 137.167,251.167 136.833,250.833 136.5,250.5 Z"/></g>
<g><path style="opacity:0.004" fill="#fefffe" d="M 167.5,251.5 C 166.833,250.167 166.833,250.167 167.5,251.5 Z"/></g>
<g><path style="opacity:0.004" fill="#fefffe" d="M 190.5,251.5 C 189.833,250.167 189.833,250.167 190.5,251.5 Z"/></g>
</svg>
